<svg width="148" height="30" viewBox="0 0 148 30" fill="none" xmlns="http://www.w3.org/2000/svg">
<path fill-rule="evenodd" clip-rule="evenodd" d="M72.4957 16.7742V29.309H64.8391V0.743779H72.4957V6.36552C74.987 1.78726 80.3478 -1.14753 84.4826 0.430735L83.4522 8.93508C76.9043 7.96987 72.4957 10.096 72.4957 16.7742ZM16.1739 30.0003C23.6478 30.0003 30.1565 25.3438 31.487 18.5742L24.0652 17.1394C23.3348 21.0525 20.5565 23.5438 16.187 23.5438C10.7609 23.5438 7.66956 20.1786 7.66956 15.0264C7.66956 9.87422 10.7739 6.509 16.187 6.509C20.5565 6.509 23.3348 9.0003 24.0652 12.9133L31.487 11.4394C30.1565 4.65682 23.5043 0.0524745 16.1739 0.0524745C6.6913 0.0524745 0 6.40465 0 15.0264C0 23.6481 6.6913 30.0003 16.1739 30.0003ZM46.7478 30.0003H47.6609C55.8652 29.8568 60.8739 25.4873 60.8739 16.7351V0.795953H53.2174V16.0047C53.2174 21.2612 51.3522 23.5568 47.2043 23.5568C43.0565 23.5568 41.1913 21.2481 41.1913 16.0047V0.743779H33.5348V16.7351C33.5348 25.6307 38.5435 30.0003 46.7478 30.0003ZM100.435 30.0003C107.27 30.0003 113.061 26.5438 115.148 21.0655L107.817 19.5394C106.135 23.2307 103.265 23.7786 100.252 23.7786C95.6478 23.7786 92.8696 21.0655 92.1913 17.7394H116.387V15.4307C116.387 6.22204 109.774 0.0524745 100.435 0.0524745C91.0956 0.0524745 84.4956 6.40465 84.4956 15.0264C84.4956 23.6481 91.0956 30.0003 100.435 30.0003ZM92.1 12.222C92.4652 8.25682 95.3348 5.81769 100.396 5.81769C105.457 5.81769 108.365 8.25682 108.73 12.222H92.1ZM130.67 19.8264L123.339 29.322H113.961L125.948 15.0394L113.948 0.743779H123.326L130.657 10.2394L137.987 0.743779H147.378L135.391 15.0264L147.378 29.309H137.987L130.657 19.8133L130.67 19.8264Z" fill="black"/>
</svg>
