<svg width="167" height="26" viewBox="0 0 167 26" fill="none" xmlns="http://www.w3.org/2000/svg">
<g clip-path="url(#clip0_2400_106)">
<mask id="mask0_2400_106" style="mask-type:luminance" maskUnits="userSpaceOnUse" x="0" y="0" width="167" height="26">
<path d="M166.989 0.5H0V25.5H166.989V0.5Z" fill="white"/>
</mask>
<g mask="url(#mask0_2400_106)">
<path d="M25.0014 13C25.0014 19.9036 19.405 25.5 12.5 25.5C5.59643 25.5 0 19.9036 0 13C0 6.09643 5.59643 0.5 12.5 0.5C19.405 0.5 25.0014 6.09643 25.0014 13Z" fill="white"/>
<path d="M36.6854 18.366C34.7177 18.366 33.6196 17.1619 33.6196 15.0382V4.25781H28.7422V15.0103C28.7422 19.7316 31.6241 22.4295 36.6854 22.4295C41.7467 22.4295 44.6285 19.7316 44.6285 15.0103V4.25781H39.7512V15.0382C39.7512 17.1619 38.6531 18.366 36.6854 18.366Z" fill="white"/>
<path d="M53.2365 22.4296C57.5119 22.4296 60.3156 20.1498 60.3156 16.7663C60.3156 14.3527 58.8719 12.491 55.0425 11.443L53.7047 11.0751C51.7928 10.5511 51.0849 9.97705 51.0849 9.13536C51.0849 8.24349 51.8708 7.7474 53.2588 7.7474C54.9422 7.7474 56.7482 8.68943 58.008 9.76524L60.4438 6.69946C58.5319 4.9659 55.9622 3.91797 53.2365 3.91797C49.1172 3.91797 46.2354 6.14762 46.2354 9.5813C46.2354 12.229 47.9634 13.9625 51.1629 14.7986L52.2666 15.0885C54.6523 15.7184 55.4661 16.1922 55.4661 17.1342C55.4661 18.1041 54.6245 18.6002 53.2086 18.6002C51.1127 18.6002 49.3792 17.8421 47.9634 16.5824L45.6055 19.5478C47.5732 21.3817 50.3268 22.4296 53.2365 22.4296Z" fill="white"/>
<path d="M74.2352 22.0895H79.1962L72.6633 4.25781H67L60.4727 22.0895H65.2943L66.4259 18.7617H73.1092L74.2352 22.0895ZM67.6577 15.1385L69.7815 8.90107L71.8774 15.1385H67.6577Z" fill="white"/>
<path d="M88.604 22.0895H93.4814V8.19315H98.7824V4.25781H83.3086V8.19315H88.604V22.0895Z" fill="white"/>
<path d="M107.919 22.4296C113.264 22.4296 117.172 18.6281 117.172 13.1989C117.172 7.77527 113.264 3.91797 107.919 3.91797C102.568 3.91797 98.6602 7.77527 98.6602 13.1989C98.6602 18.6281 102.568 22.4296 107.919 22.4296ZM107.919 18.394C105.377 18.394 103.616 16.2925 103.616 13.1989C103.616 10.1052 105.377 7.95922 107.919 7.95922C110.461 7.95922 112.216 10.1052 112.216 13.1989C112.216 16.2925 110.461 18.394 107.919 18.394Z" fill="white"/>
<path d="M118.859 22.0895H125.883C131.156 22.0895 134.907 18.4161 134.907 13.1764C134.907 7.93116 131.156 4.25781 125.883 4.25781H118.859V22.0895ZM123.659 18.2377V8.11511H125.883C128.452 8.11511 130.03 10.133 130.03 13.1764C130.03 16.2143 128.452 18.2377 125.883 18.2377H123.659Z" fill="white"/>
<path d="M147.77 22.0895H152.731L146.198 4.25781H140.535L134.008 22.0895H138.829L139.961 18.7617H146.644L147.77 22.0895ZM141.193 15.1385L143.317 8.90107L145.413 15.1385H141.193Z" fill="white"/>
<path d="M160.675 15.6681L166.99 4.25781H161.489L158.211 11.337L154.906 4.25781H149.398L155.72 15.6681V22.0895H160.675V15.6681Z" fill="white"/>
</g>
</g>
<defs>
<clipPath id="clip0_2400_106">
<rect width="167" height="26" fill="white"/>
</clipPath>
</defs>
</svg>
