<svg width="123" height="26" viewBox="0 0 123 26" fill="none" xmlns="http://www.w3.org/2000/svg">
<g clip-path="url(#clip0_2400_92)">
<mask id="mask0_2400_92" style="mask-type:luminance" maskUnits="userSpaceOnUse" x="0" y="0" width="123" height="26">
<path d="M122.828 0.5H0.960938V25.5H122.828V0.5Z" fill="white"/>
</mask>
<g mask="url(#mask0_2400_92)">
<path d="M42.555 4.56703H43.6395V7.71246H44.9953L46.2427 2.72322V0.717003H42.555V4.56703ZM26.0693 8.85126C26.8827 8.85126 27.2621 9.50207 27.2621 14.5999H24.6051C24.7135 9.50207 25.1473 8.85126 26.0693 8.85126ZM31.0041 19.1009H29.2687V19.6976C29.2687 22.1922 28.5635 23.3852 27.0993 23.3852C25.4183 23.3852 24.6049 22.3004 24.6049 16.6061V16.1725H31.2207C31.2207 9.50207 29.7565 6.89905 26.0691 6.89905C22.3815 6.89905 19.9953 10.6951 19.9953 16.5523C19.9953 22.3548 22.2729 25.5 26.1775 25.5C29.5397 25.5 31.004 23.602 31.004 19.5892L31.0041 19.1009ZM77.0582 8.85126C77.8716 8.85126 78.2512 9.50207 78.2512 14.5999H75.7435C75.8519 9.50207 76.1362 8.85126 77.0582 8.85126ZM81.993 19.1009H80.2576V19.6976C80.2576 22.1922 79.5526 23.3852 78.0884 23.3852C76.4072 23.3852 75.7433 22.3004 75.7433 16.6061V16.1725H82.2098C82.2098 9.50207 80.7456 6.89905 77.058 6.89905C73.3703 6.89905 70.9843 10.6951 70.9843 16.5521C70.9843 22.3548 73.2621 25.5 77.1666 25.5C80.5288 25.5 81.993 23.602 81.993 19.5892V19.1009ZM105.962 25.5C108.403 25.5 109.433 23.9816 109.433 21.8122V19.1009H107.807V21.8122C107.807 22.9514 107.644 23.3306 107.101 23.3306C106.613 23.3306 106.451 23.0052 106.451 21.9748V8.95967H109.433V7.27865H106.505V2.23521H104.824L102.329 7.49545H100.865V8.90547H102.166V20.9444C102.166 24.09 102.709 25.5 105.962 25.5ZM93.3811 11.7255C93.3811 8.36326 91.8629 6.95345 88.6091 6.95345C85.3552 6.95345 83.1318 9.28527 83.1318 12.0511V13.1357H86.8738V10.5867C86.8738 9.12247 87.1993 8.58027 88.0127 8.58027C88.8263 8.58027 89.1515 9.06827 89.1515 10.5867V13.5695C84.2166 15.2503 82.6982 16.4979 82.6982 20.6736C82.6982 23.9274 83.9996 25.5 86.2232 25.5C88.1212 25.5 88.9891 24.1984 89.4771 23.3852V25.1746H94.3035V23.7102H93.3815L93.3811 11.7255ZM121.635 23.7102V10.8577C121.635 8.20046 120.442 6.95325 118.327 6.95325C115.778 6.95325 114.748 8.85126 114.748 8.85126V0.5L109.379 1.09661V2.50641H110.626V23.7102H109.759V25.1746H115.724V23.7102H114.856V12.4847C114.856 10.5325 115.399 9.71907 116.375 9.71907C117.08 9.71907 117.351 10.1529 117.351 11.2375V23.7102H116.375V25.1746H122.828V23.7102H121.635ZM89.1513 15.0877V20.6192C89.1513 22.2462 88.8261 22.8972 87.9041 22.8972C87.1993 22.8972 86.8737 22.3004 86.8737 20.3484C86.8737 17.0401 87.1449 16.2267 89.1513 15.0877ZM70.1579 23.7102V2.18121H71.4053V0.771H63.9756V2.18101H65.494V12.2677H60.722V2.18121H62.2946V0.771H54.7565V2.18101H56.0582V23.71H54.7565V25.1744H62.2946V23.71H60.722V13.9491H65.494V23.7102H63.9756V25.1746H71.4053V23.7102H70.1579ZM99.9972 23.7102V0.5L94.4115 1.09661V2.50641H95.7673V23.7102H94.8997V25.1746H101.299V23.7102H99.9972ZM54.4855 20.3482C54.4855 14.5999 48.3035 14.2201 48.3035 10.4239C48.3035 9.12247 48.9541 8.47166 49.9845 8.47166C51.5571 8.47166 52.3707 10.0443 52.4791 13.3521H53.8889V7.92926C53.8889 7.92926 52.3163 6.95325 49.9301 6.95325C47.0561 6.95325 44.7241 8.58006 44.7241 11.8881C44.7241 17.3111 50.7435 18.0705 50.7435 21.758C50.7435 23.2224 50.0385 23.9274 48.8995 23.9274C47.1641 23.9274 46.2965 22.409 46.1881 18.6669H44.7783V24.524C44.7783 24.524 46.5137 25.5 49.0623 25.5C52.2079 25.5 54.4855 23.7102 54.4855 20.3482ZM19.1821 23.7102V2.18121H20.3209V0.771H13.976L10.8308 14.4913L7.46859 0.771H0.960938V2.18101H2.31675V23.71H0.960938V25.1744H5.94997V23.71H4.37736V8.58006L8.3362 25.1744H10.6138L14.5182 8.47166V23.71H13.054V25.1744H20.3209V23.71L19.1821 23.7102ZM43.2057 23.7102V10.8577C43.2057 8.20046 42.0128 6.95325 39.952 6.95325C37.4032 6.95325 36.3728 8.85126 36.3728 8.85126V6.95325L30.9498 7.54986V9.01407H32.1972V23.7102H30.8958V25.1746H37.3488V23.7102H36.4812V12.4847C36.4812 10.5325 37.0236 9.71907 37.9996 9.71907C38.7046 9.71907 38.9756 10.1529 38.9756 11.2375V23.7102H37.9996V25.1746H44.0733V23.7102H43.2057Z" fill="white"/>
</g>
</g>
<defs>
<clipPath id="clip0_2400_92">
<rect width="123" height="26" fill="white"/>
</clipPath>
</defs>
</svg>
