<svg width="108" height="23" viewBox="0 0 108 23" fill="none" xmlns="http://www.w3.org/2000/svg">
<path d="M10.5951 3.75666C10.8016 3.3383 10.9049 3.12912 11.045 3.06229C11.167 3.00414 11.3087 3.00414 11.4306 3.06229C11.5708 3.12912 11.6741 3.3383 11.8806 3.75666L13.8398 7.72575C13.9007 7.84926 13.9312 7.91102 13.9757 7.95896C14.0152 8.00142 14.0625 8.03581 14.115 8.06025C14.1744 8.08785 14.2425 8.09781 14.3788 8.11773L18.7612 8.75828C19.2227 8.82573 19.4534 8.85946 19.5602 8.97217C19.6531 9.07024 19.6968 9.205 19.6791 9.33893C19.6588 9.49286 19.4918 9.65556 19.1577 9.98098L15.9877 13.0685C15.8889 13.1648 15.8395 13.2129 15.8076 13.2701C15.7794 13.3208 15.7613 13.3765 15.7543 13.4341C15.7464 13.4992 15.7581 13.5672 15.7814 13.7031L16.5293 18.0641C16.6082 18.5241 16.6477 18.7541 16.5735 18.8905C16.5091 19.0093 16.3944 19.0926 16.2615 19.1172C16.1088 19.1455 15.9023 19.0369 15.4893 18.8197L11.5715 16.7593C11.4494 16.6952 11.3884 16.6631 11.324 16.6504C11.2671 16.6393 11.2086 16.6393 11.1516 16.6504C11.0873 16.6631 11.0263 16.6952 10.9042 16.7593L6.9864 18.8197C6.57336 19.0369 6.36683 19.1455 6.21413 19.1172C6.08126 19.0926 5.96662 19.0093 5.90212 18.8905C5.82799 18.7541 5.86744 18.5241 5.94633 18.0641L6.69429 13.7031C6.7176 13.5672 6.72926 13.4992 6.72137 13.4341C6.71439 13.3765 6.69628 13.3208 6.66805 13.2701C6.63617 13.2129 6.58676 13.1647 6.48795 13.0685L3.318 9.98098C2.9839 9.65556 2.81685 9.49286 2.79652 9.33893C2.77884 9.205 2.82253 9.07024 2.91544 8.97217C3.02222 8.85946 3.25297 8.82573 3.71445 8.75828L8.09685 8.11773C8.23314 8.09781 8.30128 8.08785 8.36063 8.06025C8.41317 8.03581 8.46048 8.00142 8.49992 7.95896C8.54447 7.91102 8.57495 7.84926 8.63592 7.72575L10.5951 3.75666Z" fill="#EF990E"/>
<path d="M32.0982 3.75666C32.3047 3.3383 32.4079 3.12912 32.5481 3.06229C32.6701 3.00414 32.8118 3.00414 32.9337 3.06229C33.0739 3.12912 33.1771 3.3383 33.3836 3.75666L35.3428 7.72575C35.4038 7.84926 35.4343 7.91102 35.4788 7.95896C35.5183 8.00142 35.5656 8.03581 35.6181 8.06025C35.6775 8.08785 35.7456 8.09781 35.8819 8.11773L40.2643 8.75828C40.7258 8.82573 40.9565 8.85946 41.0633 8.97217C41.1562 9.07024 41.1999 9.205 41.1822 9.33893C41.1619 9.49286 40.9949 9.65556 40.6607 9.98098L37.4908 13.0685C37.392 13.1648 37.3426 13.2129 37.3107 13.2701C37.2825 13.3208 37.2644 13.3765 37.2574 13.4341C37.2495 13.4992 37.2611 13.5672 37.2845 13.7031L38.0324 18.0641C38.1113 18.5241 38.1508 18.7541 38.0766 18.8905C38.0121 19.0093 37.8975 19.0926 37.7646 19.1172C37.6119 19.1455 37.4054 19.0369 36.9923 18.8197L33.0745 16.7593C32.9525 16.6952 32.8914 16.6631 32.8271 16.6504C32.7702 16.6393 32.7116 16.6393 32.6547 16.6504C32.5904 16.6631 32.5294 16.6952 32.4073 16.7593L28.4895 18.8197C28.0764 19.0369 27.8699 19.1455 27.7172 19.1172C27.5843 19.0926 27.4697 19.0093 27.4052 18.8905C27.3311 18.7541 27.3705 18.5241 27.4494 18.0641L28.1974 13.7031C28.2207 13.5672 28.2323 13.4992 28.2245 13.4341C28.2175 13.3765 28.1994 13.3208 28.1711 13.2701C28.1393 13.2129 28.0898 13.1647 27.991 13.0685L24.8211 9.98098C24.487 9.65556 24.3199 9.49286 24.2996 9.33893C24.2819 9.205 24.3256 9.07024 24.4185 8.97217C24.5253 8.85946 24.756 8.82573 25.2175 8.75828L29.5999 8.11773C29.7362 8.09781 29.8044 8.08785 29.8637 8.06025C29.9163 8.03581 29.9636 8.00142 30.003 7.95896C30.0476 7.91102 30.078 7.84926 30.139 7.72575L32.0982 3.75666Z" fill="#EF990E"/>
<path d="M53.6013 3.75666C53.8078 3.3383 53.9111 3.12912 54.0513 3.06229C54.1732 3.00414 54.3149 3.00414 54.4369 3.06229C54.577 3.12912 54.6803 3.3383 54.8868 3.75666L56.846 7.72575C56.9069 7.84926 56.9374 7.91102 56.982 7.95896C57.0214 8.00142 57.0687 8.03581 57.1213 8.06025C57.1806 8.08785 57.2488 8.09781 57.385 8.11773L61.7674 8.75828C62.2289 8.82573 62.4597 8.85946 62.5665 8.97217C62.6594 9.07024 62.7031 9.205 62.6854 9.33893C62.665 9.49286 62.498 9.65556 62.1639 9.98098L58.9939 13.0685C58.8951 13.1648 58.8457 13.2129 58.8138 13.2701C58.7856 13.3208 58.7675 13.3765 58.7605 13.4341C58.7526 13.4992 58.7643 13.5672 58.7876 13.7031L59.5356 18.0641C59.6145 18.5241 59.6539 18.7541 59.5798 18.8905C59.5153 19.0093 59.4006 19.0926 59.2678 19.1172C59.1151 19.1455 58.9085 19.0369 58.4955 18.8197L54.5777 16.7593C54.4556 16.6952 54.3946 16.6631 54.3303 16.6504C54.2733 16.6393 54.2148 16.6393 54.1578 16.6504C54.0935 16.6631 54.0325 16.6952 53.9104 16.7593L49.9926 18.8197C49.5796 19.0369 49.3731 19.1455 49.2204 19.1172C49.0875 19.0926 48.9728 19.0093 48.9083 18.8905C48.8342 18.7541 48.8737 18.5241 48.9526 18.0641L49.7005 13.7031C49.7238 13.5672 49.7355 13.4992 49.7276 13.4341C49.7206 13.3765 49.7025 13.3208 49.6743 13.2701C49.6424 13.2129 49.593 13.1647 49.4942 13.0685L46.3242 9.98098C45.9901 9.65556 45.8231 9.49286 45.8027 9.33893C45.7851 9.205 45.8288 9.07024 45.9217 8.97217C46.0284 8.85946 46.2592 8.82573 46.7207 8.75828L51.1031 8.11773C51.2394 8.09781 51.3075 8.08785 51.3669 8.06025C51.4194 8.03581 51.4667 8.00142 51.5061 7.95896C51.5507 7.91102 51.5812 7.84926 51.6421 7.72575L53.6013 3.75666Z" fill="#EF990E"/>
<path d="M75.1044 3.75666C75.3109 3.3383 75.4142 3.12912 75.5544 3.06229C75.6763 3.00414 75.818 3.00414 75.94 3.06229C76.0801 3.12912 76.1834 3.3383 76.3899 3.75666L78.3491 7.72575C78.4101 7.84926 78.4405 7.91102 78.4851 7.95896C78.5245 8.00142 78.5718 8.03581 78.6244 8.06025C78.6837 8.08785 78.7519 8.09781 78.8882 8.11773L83.2706 8.75828C83.732 8.82573 83.9628 8.85946 84.0696 8.97217C84.1625 9.07024 84.2062 9.205 84.1885 9.33893C84.1682 9.49286 84.0011 9.65556 83.667 9.98098L80.4971 13.0685C80.3982 13.1648 80.3488 13.2129 80.317 13.2701C80.2887 13.3208 80.2706 13.3765 80.2636 13.4341C80.2557 13.4992 80.2674 13.5672 80.2907 13.7031L81.0387 18.0641C81.1176 18.5241 81.157 18.7541 81.0829 18.8905C81.0184 19.0093 80.9037 19.0926 80.7709 19.1172C80.6182 19.1455 80.4117 19.0369 79.9986 18.8197L76.0808 16.7593C75.9587 16.6952 75.8977 16.6631 75.8334 16.6504C75.7765 16.6393 75.7179 16.6393 75.661 16.6504C75.5967 16.6631 75.5356 16.6952 75.4136 16.7593L71.4957 18.8197C71.0827 19.0369 70.8762 19.1455 70.7235 19.1172C70.5906 19.0926 70.476 19.0093 70.4115 18.8905C70.3373 18.7541 70.3768 18.5241 70.4557 18.0641L71.2036 13.7031C71.2269 13.5672 71.2386 13.4992 71.2307 13.4341C71.2237 13.3765 71.2056 13.3208 71.1774 13.2701C71.1455 13.2129 71.0961 13.1647 70.9973 13.0685L67.8273 9.98098C67.4932 9.65556 67.3262 9.49286 67.3059 9.33893C67.2882 9.205 67.3319 9.07024 67.4248 8.97217C67.5316 8.85946 67.7623 8.82573 68.2238 8.75828L72.6062 8.11773C72.7425 8.09781 72.8106 8.08785 72.87 8.06025C72.9225 8.03581 72.9698 8.00142 73.0093 7.95896C73.0538 7.91102 73.0843 7.84926 73.1453 7.72575L75.1044 3.75666Z" fill="#EF990E"/>
<path d="M96.6076 3.75666C96.8141 3.3383 96.9173 3.12912 97.0575 3.06229C97.1795 3.00414 97.3212 3.00414 97.4431 3.06229C97.5833 3.12912 97.6865 3.3383 97.893 3.75666L99.8522 7.72575C99.9132 7.84926 99.9437 7.91102 99.9882 7.95896C100.028 8.00142 100.075 8.03581 100.128 8.06025C100.187 8.08785 100.255 8.09781 100.391 8.11773L104.774 8.75828C105.235 8.82573 105.466 8.85946 105.573 8.97217C105.666 9.07024 105.709 9.205 105.692 9.33893C105.671 9.49286 105.504 9.65556 105.17 9.98098L102 13.0685C101.901 13.1648 101.852 13.2129 101.82 13.2701C101.792 13.3208 101.774 13.3765 101.767 13.4341C101.759 13.4992 101.771 13.5672 101.794 13.7031L102.542 18.0641C102.621 18.5241 102.66 18.7541 102.586 18.8905C102.522 19.0093 102.407 19.0926 102.274 19.1172C102.121 19.1455 101.915 19.0369 101.502 18.8197L97.5839 16.7593C97.4619 16.6952 97.4008 16.6631 97.3365 16.6504C97.2796 16.6393 97.221 16.6393 97.1641 16.6504C97.0998 16.6631 97.0388 16.6952 96.9167 16.7593L92.9989 18.8197C92.5858 19.0369 92.3793 19.1455 92.2266 19.1172C92.0937 19.0926 91.9791 19.0093 91.9146 18.8905C91.8405 18.7541 91.8799 18.5241 91.9588 18.0641L92.7068 13.7031C92.7301 13.5672 92.7417 13.4992 92.7339 13.4341C92.7269 13.3765 92.7088 13.3208 92.6805 13.2701C92.6487 13.2129 92.5992 13.1647 92.5004 13.0685L89.3305 9.98098C88.9964 9.65556 88.8293 9.49286 88.809 9.33893C88.7913 9.205 88.835 9.07024 88.9279 8.97217C89.0347 8.85946 89.2654 8.82573 89.7269 8.75828L94.1093 8.11773C94.2456 8.09781 94.3138 8.08785 94.3731 8.06025C94.4257 8.03581 94.473 8.00142 94.5124 7.95896C94.557 7.91102 94.5874 7.84926 94.6484 7.72575L96.6076 3.75666Z" fill="#EF990E"/>
</svg>
