<svg width="59" height="26" viewBox="0 0 59 26" fill="none" xmlns="http://www.w3.org/2000/svg">
<g clip-path="url(#clip0_2400_98)">
<mask id="mask0_2400_98" style="mask-type:luminance" maskUnits="userSpaceOnUse" x="0" y="0" width="59" height="26">
<path d="M58.508 0.5H0.445312V25.5H58.508V0.5Z" fill="white"/>
</mask>
<g mask="url(#mask0_2400_98)">
<path d="M7.49851 7.33157V10.5811H14.3669V17.3759H7.49851V25.4258H0.445312V0.5H15.4378L15.9179 7.33157H7.49851Z" fill="white"/>
<path d="M36.0529 4.33272C38.3928 6.72117 39.5634 9.60439 39.5634 12.9817C39.5634 16.3836 38.3927 19.2786 36.0529 21.6674C33.7126 24.0557 30.89 25.2499 27.5849 25.2499C24.2556 25.2499 21.4204 24.0557 19.0806 21.6674C16.7402 19.2787 15.5703 16.3836 15.5703 12.9817C15.5703 9.60429 16.7402 6.72117 19.0806 4.33272C21.4204 1.94427 24.2556 0.75 27.5849 0.75C30.8899 0.75 33.7126 1.94427 36.0529 4.33272ZM25.5583 17.9758C25.5583 18.5312 25.763 19.0134 26.1735 19.4234C26.5834 19.8339 27.0783 20.0387 27.6572 20.0387C28.2363 20.0387 28.7248 19.8339 29.1229 19.4234C29.5211 19.0134 29.7201 18.5312 29.7201 17.9758V7.87919C29.7201 7.30023 29.5211 6.80597 29.1229 6.39549C28.7249 5.98562 28.2364 5.78027 27.6572 5.78027C27.0783 5.78027 26.5835 5.98562 26.1735 6.39549C25.7629 6.80597 25.5583 7.30023 25.5583 7.87919V17.9758Z" fill="white"/>
<path d="M50.5697 25.5L47.0249 19.1852L43.5907 25.5H35.8359L43.2215 12.5753L36.2421 0.5H44.2185L47.1358 5.89139L50.0899 0.5H57.8076L50.976 12.5013L58.5092 25.4999L50.5697 25.5Z" fill="white"/>
</g>
</g>
<defs>
<clipPath id="clip0_2400_98">
<rect width="59" height="26" fill="white"/>
</clipPath>
</defs>
</svg>
