<svg width="83" height="26" viewBox="0 0 83 26" fill="none" xmlns="http://www.w3.org/2000/svg">
<g clip-path="url(#clip0_2400_68)">
<mask id="mask0_2400_68" style="mask-type:luminance" maskUnits="userSpaceOnUse" x="0" y="0" width="84" height="26">
<path d="M83.0024 0.5H0.921875V25.5H83.0024V0.5Z" fill="white"/>
</mask>
<g mask="url(#mask0_2400_68)">
<path d="M13.2747 0.5C6.39354 0.5 0.921875 6.11822 0.921875 12.9618C0.921875 19.8804 6.39354 25.5 13.2747 25.5C20.1921 25.5 25.5904 19.8814 25.5904 12.964C25.5915 6.1204 20.1921 0.5 13.2747 0.5ZM13.2747 5.78968C18.8932 5.78968 23.0091 9.35773 24.7484 12.964C23.0091 16.6253 18.8932 20.2103 13.2747 20.2103C7.61984 20.2103 3.53689 16.6242 1.79876 12.964C3.53689 9.3589 7.62101 5.79186 13.2747 5.79186V5.78968ZM13.2747 6.35682C9.61448 6.35682 6.63036 9.31924 6.63036 12.9618C6.63036 16.6595 9.61448 19.6061 13.2747 19.6061C16.9348 19.6061 19.8797 16.6593 19.8797 12.964C19.8797 9.32142 16.9348 6.35682 13.2747 6.35682Z" fill="white"/>
<path d="M37.4007 1.98438C30.9401 1.98438 26.4375 6.88867 26.4375 12.8538V12.9258C26.4375 18.9648 31.0319 23.7429 37.2371 23.7429C41.2815 23.7429 43.6979 22.2964 45.8577 19.9715L42.9107 17.0092C41.2628 18.5084 39.7787 19.4807 37.3811 19.4807C33.776 19.4807 31.2691 16.4578 31.2691 12.8538V12.7993C31.2691 9.1942 33.831 6.24666 37.3811 6.24666C39.4858 6.24666 41.1332 7.14366 42.7624 8.62646L45.7093 5.22143C43.751 3.30058 41.3724 1.98438 37.4007 1.98438Z" fill="white"/>
<path d="M47.6016 2.34766V23.3733H57.6116C62.3505 23.3733 65.4796 21.4541 65.4796 17.6124V17.5383C65.4796 14.7203 63.9807 13.3096 61.5445 12.3773C63.046 11.5363 64.3082 10.219 64.3082 7.8402V7.78567C64.3082 6.33801 63.8318 5.16721 62.862 4.19742C61.6556 3.0086 59.7704 2.34766 57.3716 2.34766H47.6016ZM52.1016 6.39181H56.678C58.6363 6.39181 59.7144 7.17861 59.7144 8.55131V8.62548C59.7144 10.1809 58.4157 10.8395 56.3661 10.8395L52.1016 10.8417V6.39181ZM52.1016 14.6851H57.4654C59.8243 14.6851 60.8857 15.5643 60.8857 16.9733V17.0453C60.8857 18.6007 59.6425 19.3139 57.6116 19.3139L52.1016 19.316V14.6851Z" fill="white"/>
<path d="M74.5512 2.03906C70.2691 2.03906 67.1958 4.56372 67.1958 8.38668V8.44339C67.1958 12.6177 69.9391 13.7896 74.1673 14.8695C77.681 15.7831 78.4121 16.3682 78.4121 17.5394V17.6136C78.4121 18.8387 77.2581 19.5899 75.3735 19.5899C72.9572 19.5899 70.9814 18.5997 69.0957 17.0443L66.3516 20.3206C68.8768 22.5717 72.0973 23.6711 75.2819 23.6711V23.6689C79.8205 23.6689 83.0038 21.3252 83.0038 17.1555V17.101C83.0038 13.4233 80.5891 11.9011 76.3246 10.7861C72.7019 9.85146 71.7853 9.3951 71.7853 8.0224V7.96786C71.7853 6.94302 72.7189 6.12029 74.4945 6.12029C76.2701 6.12029 78.1004 6.9057 79.9674 8.20345L82.3646 4.71117C80.2412 3.00934 77.6257 2.03906 74.5512 2.03906Z" fill="white"/>
</g>
</g>
<defs>
<clipPath id="clip0_2400_68">
<rect width="83" height="26" fill="white"/>
</clipPath>
</defs>
</svg>
