<svg width="99" height="26" viewBox="0 0 99 26" fill="none" xmlns="http://www.w3.org/2000/svg">
<g clip-path="url(#clip0_2400_83)">
<mask id="mask0_2400_83" style="mask-type:luminance" maskUnits="userSpaceOnUse" x="0" y="0" width="99" height="26">
<path d="M98.9026 0.5H0.277344V25.5H98.9026V0.5Z" fill="white"/>
</mask>
<g mask="url(#mask0_2400_83)">
<path fill-rule="evenodd" clip-rule="evenodd" d="M45.9023 24.7148H51.7843V1.25H45.9023V24.7148Z" fill="white"/>
<path fill-rule="evenodd" clip-rule="evenodd" d="M66.3857 19.775C70.1235 19.775 72.8695 16.5725 72.8695 12.9775C72.8695 9.38215 70.1081 6.21006 66.3857 6.21006C62.648 6.21006 59.8867 9.38215 59.8867 12.9775C59.8867 16.5725 62.648 19.775 66.3857 19.775ZM66.4315 0.5C73.4797 0.5 79.1551 5.90791 79.1551 12.9321C79.1551 19.9865 73.4341 25.5 66.3704 25.5C59.3069 25.5 53.5859 20.0621 53.5859 13.0228C53.5859 5.99843 59.3834 0.5 66.4315 0.5ZM79.8316 17.6206L85.2286 16.3509C85.6162 19.1704 87.6884 20.1891 89.865 20.1891C92.0269 20.1891 92.8171 18.9195 92.8171 17.9305C92.8171 17.1333 92.3548 16.3509 90.7745 16.041L87.4796 15.4062C83.5438 14.6534 80.756 12.2029 80.756 8.43859C80.756 3.9511 84.8855 0.792055 89.552 0.792055C95.5602 0.792055 98.0349 4.51207 98.4674 7.62686L93.1748 9.10298C92.8916 7.18389 91.6989 5.79643 89.5222 5.79643C87.6436 5.79643 86.7492 7.03639 86.7492 7.98103C86.7492 8.76341 87.1219 9.66395 88.5233 9.92961L91.9523 10.5791C96.4397 11.4354 98.8998 14.1515 98.8998 17.6796C98.8998 21.5177 95.5602 25.2081 89.8353 25.2081C83.842 25.2081 80.6218 22.0933 79.8316 17.6206Z" fill="white"/>
<path fill-rule="evenodd" clip-rule="evenodd" d="M6.60754 24.7148H0.277344L10.7447 1.25H17.1052L6.60754 24.7148Z" fill="white"/>
<path fill-rule="evenodd" clip-rule="evenodd" d="M28.8736 1.23828H21.5824L29.5475 12.7192L25.1155 19.1534L17.1306 1.2521H10.7695L21.2678 24.7175H28.0568L33.016 17.279L37.9167 24.7175H44.78L36.5879 12.7192L44.4503 1.23828H37.2566L33.016 8.18846L28.8736 1.23828Z" fill="white"/>
</g>
</g>
<defs>
<clipPath id="clip0_2400_83">
<rect width="99" height="26" fill="white"/>
</clipPath>
</defs>
</svg>
