<svg width="151" height="26" viewBox="0 0 151 26" fill="none" xmlns="http://www.w3.org/2000/svg">
<mask id="mask0_2400_77" style="mask-type:luminance" maskUnits="userSpaceOnUse" x="0" y="0" width="151" height="26">
<path d="M150.465 0.5H0.355469V25.5H150.465V0.5Z" fill="white"/>
</mask>
<g mask="url(#mask0_2400_77)">
<path fill-rule="evenodd" clip-rule="evenodd" d="M20.526 24.2537H13.3979V12.9437C13.3979 11.7567 12.5457 10.9958 11.5475 10.9958C10.5735 10.9958 9.39866 11.7872 9.39866 12.9437V24.2537H3.00102V6.23567L0.9375 4.77473C3.29928 3.98342 7.24988 2.27904 9.39866 1.08594V10.5332C10.257 9.46796 12.3449 8.09833 14.9928 8.09833C18.3529 8.09833 19.7955 10.3201 19.7955 12.9741V22.5188C19.7955 22.8113 20.039 23.3832 20.526 24.2537ZM93.992 24.2537H86.8639V12.9437C86.8639 11.7567 86.0118 10.9958 85.0135 10.9958C84.0395 10.9958 82.8647 11.7872 82.8647 12.9437V24.2537H76.4671V6.23567L74.4035 4.77473C76.7653 3.98342 80.7159 2.27904 82.8647 1.08594V10.5332C83.7169 9.46796 85.8048 8.09833 88.4588 8.09833C91.8189 8.09833 93.2616 10.3201 93.2616 12.9741V22.5188C93.2616 22.8113 93.505 23.3832 93.992 24.2537ZM36.1092 21.5631V22.6893C34.6909 23.9128 33.1203 24.9172 29.7542 24.9172C24.4339 24.9172 21.1834 21.3501 21.1834 16.9552C21.1834 11.7141 24.5253 8.14099 29.4254 8.14099C34.2769 8.14099 36.1092 11.4646 36.1092 15.6464H27.2463C27.6297 20.4614 30.3142 22.6588 32.7673 22.6588C33.9482 22.6588 35.2813 22.2631 36.1092 21.5631ZM29.1272 14.6968C30.5516 14.6968 30.7159 14.2891 30.7159 13.0959C30.7159 12.1828 30.5516 9.93059 29.1272 9.93059C27.7028 9.93059 27.5384 12.1828 27.5384 13.0959C27.5384 14.289 27.7027 14.6968 29.1272 14.6968ZM149.878 21.5571V22.6832C148.46 23.9068 146.889 24.9111 143.523 24.9111C138.203 24.9111 134.952 21.344 134.952 16.9552C134.952 11.708 138.294 8.14099 143.201 8.14099C148.046 8.14099 149.878 11.4646 149.878 15.6404H141.015C141.399 20.4614 144.083 22.6528 146.536 22.6528C147.717 22.6528 149.05 22.257 149.878 21.5571ZM142.896 14.6907C144.321 14.6907 144.485 14.2893 144.485 13.0959C144.485 12.1828 144.321 9.92446 142.896 9.92446C141.472 9.92446 141.307 12.1828 141.307 13.0959C141.307 14.289 141.472 14.6907 142.896 14.6907ZM54.1819 21.4231L54.8942 21.5751C54.5717 22.8839 53.628 24.9169 50.5905 24.9169C48.0583 24.9169 47.3461 23.3587 46.8165 21.7151C46.3721 23.2369 44.6373 24.9169 41.338 24.9169C38.3918 24.9169 36.7727 23.6082 36.7727 21.1368C36.7727 18.3915 39.451 16.3766 46.1408 14.3922V11.5009C46.1408 10.0035 45.3434 9.48601 44.4608 9.48601C43.6633 9.48601 42.3972 10.3382 42.3972 11.6835C42.3972 12.3226 42.5186 12.8096 42.6043 13.4488C42.6043 14.2705 41.6608 15.5245 40.2182 15.5245C38.6294 15.5245 37.8624 14.3679 37.8624 13.0226C37.8624 10.8251 39.8956 8.14072 45.2279 8.14072C50.7672 8.14072 52.5325 11.0686 52.5325 13.8748V21.3195C52.5325 21.776 52.715 22.2326 53.2143 22.2326C53.6525 22.2326 53.9567 21.9832 54.1819 21.4231ZM46.1713 20.8632V15.336C43.9312 16.243 43.1581 18.4952 43.1581 20.224C43.1581 21.6179 43.5901 22.2571 44.6251 22.2571C45.526 22.2571 46.1713 21.6788 46.1713 20.8632ZM63.3431 24.2537H55.9898V6.23567L54.0298 4.77473C56.2698 3.98342 60.3848 2.27904 62.4301 1.08594V22.5188C62.4301 22.7927 62.7344 23.3711 63.3431 24.2537ZM103.664 24.2537H96.3051V6.23567L94.3451 4.77473C96.5851 3.98342 100.706 2.27904 102.751 1.08594V22.5188C102.751 22.7927 103.056 23.3711 103.664 24.2537ZM74.3791 22.385V23.5111C73.3078 24.4302 71.5303 24.9172 69.6129 24.9172C66.4476 24.9172 65.3519 22.5675 65.3519 20.5831V9.98532H63.824L71.8408 2.9486V8.74964H74.3791V9.98532H71.8408V21.4719C71.8408 22.385 72.3765 22.811 73.0217 22.811C73.4175 22.811 74.1235 22.6288 74.3791 22.385ZM109.782 7.8914C107.962 7.8914 106.507 6.38171 106.507 4.4886C106.507 2.5955 107.962 1.08594 109.782 1.08594C111.602 1.08594 113.051 2.5955 113.051 4.4886C113.051 6.38171 111.602 7.8914 109.782 7.8914ZM114.086 24.2537H106.574V12.9072L104.511 11.4402C106.872 10.6489 110.835 8.93838 112.99 7.74528V22.5188C112.99 22.8051 113.355 23.3832 114.086 24.2537ZM134.472 24.2537H127.112V12.9072C127.112 11.7202 126.266 10.9532 125.262 10.9532C124.288 10.9532 123.113 11.7506 123.113 12.9072V24.2537H116.715V12.9072L114.658 11.4402C117.014 10.6489 120.794 8.93838 122.949 7.74528V10.8619C124.008 9.45574 126.059 8.04966 128.707 8.04966C132.067 8.04966 133.51 10.2836 133.51 12.9376V22.5188C133.51 22.7989 133.832 23.3772 134.472 24.2537Z" fill="white"/>
</g>
</svg>
