<svg width="18" height="19" viewBox="0 0 18 19" fill="none" xmlns="http://www.w3.org/2000/svg">
<path d="M11.6081 10.1675L12.7443 16.562C12.757 16.6373 12.7465 16.7147 12.714 16.7839C12.6816 16.853 12.6288 16.9106 12.5628 16.9489C12.4967 16.9872 12.4205 17.0045 12.3444 16.9983C12.2683 16.9922 12.1959 16.963 12.1368 16.9145L9.4518 14.8993C9.32218 14.8025 9.16472 14.7501 9.00293 14.7501C8.84113 14.7501 8.68367 14.8025 8.55405 14.8993L5.86455 16.9138C5.80554 16.9621 5.7332 16.9913 5.65717 16.9974C5.58115 17.0036 5.50506 16.9864 5.43905 16.9482C5.37304 16.91 5.32026 16.8525 5.28774 16.7835C5.25522 16.7145 5.24452 16.6373 5.25705 16.562L6.39255 10.1675" stroke="#FA4A93" stroke-width="1.5" stroke-linecap="round" stroke-linejoin="round"/>
<path d="M9 11C11.4853 11 13.5 8.98531 13.5 6.50003C13.5 4.01475 11.4853 2.00003 9 2.00003C6.51472 2.00003 4.5 4.01475 4.5 6.50003C4.5 8.98531 6.51472 11 9 11Z" stroke="#FA4A93" stroke-width="1.5" stroke-linecap="round" stroke-linejoin="round"/>
</svg>
