<svg width="102" height="101" viewBox="0 0 102 101" fill="none" xmlns="http://www.w3.org/2000/svg">
<path d="M80.457 37.875C87.4296 37.875 93.082 32.2226 93.082 25.25C93.082 18.2774 87.4296 12.625 80.457 12.625C73.4844 12.625 67.832 18.2774 67.832 25.25C67.832 32.2226 73.4844 37.875 80.457 37.875Z" stroke="#FFB027" stroke-width="5" stroke-linecap="round" stroke-linejoin="round"/>
<path d="M93.0846 50.5V63.125C93.0846 65.3572 92.1979 67.498 90.6195 69.0765C89.041 70.6549 86.9002 71.5417 84.668 71.5417H17.3346C15.1024 71.5417 12.9616 70.6549 11.3832 69.0765C9.80472 67.498 8.91797 65.3572 8.91797 63.125V21.0417C8.91797 18.8094 9.80472 16.6686 11.3832 15.0902C12.9616 13.5118 15.1024 12.625 17.3346 12.625H55.2096" stroke="#FFB027" stroke-width="5" stroke-linecap="round" stroke-linejoin="round"/>
<path d="M51 71.542V88.3753" stroke="#FFB027" stroke-width="5" stroke-linecap="round" stroke-linejoin="round"/>
<path d="M34.168 88.375H67.8346" stroke="#FFB027" stroke-width="5" stroke-linecap="round" stroke-linejoin="round"/>
</svg>
