<svg width="24" height="24" viewBox="0 0 24 24" fill="none" xmlns="http://www.w3.org/2000/svg">
<path d="M10 13C12.7614 13 15 10.7614 15 8C15 5.23858 12.7614 3 10 3C7.23858 3 5 5.23858 5 8C5 10.7614 7.23858 13 10 13Z" stroke="#FA4A93" stroke-width="2" stroke-linecap="round" stroke-linejoin="round"/>
<path d="M2 21.0002C2.00012 19.7412 2.29739 18.5 2.86766 17.3775C3.43792 16.255 4.26506 15.283 5.28182 14.5404C6.29858 13.7979 7.47624 13.3058 8.71904 13.1042C9.96183 12.9026 11.2347 12.9972 12.434 13.3802" stroke="#FA4A93" stroke-width="2" stroke-linecap="round" stroke-linejoin="round"/>
<path d="M18 21C19.6569 21 21 19.6569 21 18C21 16.3431 19.6569 15 18 15C16.3431 15 15 16.3431 15 18C15 19.6569 16.3431 21 18 21Z" stroke="#FA4A93" stroke-width="2" stroke-linecap="round" stroke-linejoin="round"/>
<path d="M21.9996 22.0001L20.0996 20.1001" stroke="#FA4A93" stroke-width="2" stroke-linecap="round" stroke-linejoin="round"/>
</svg>
