<svg width="102" height="102" viewBox="0 0 102 102" fill="none" xmlns="http://www.w3.org/2000/svg">
<path d="M80.4577 67.4167C86.7281 61.2725 93.0827 53.9079 93.0827 44.2708C93.0827 38.1322 90.6441 32.2449 86.3034 27.9043C81.9627 23.5636 76.0755 21.125 69.9369 21.125C62.5302 21.125 57.3118 23.2292 50.9993 29.5417C44.6868 23.2292 39.4685 21.125 32.0619 21.125C25.9232 21.125 20.036 23.5636 15.6953 27.9043C11.3546 32.2449 8.91602 38.1322 8.91602 44.2708C8.91602 53.95 15.2285 61.3146 21.541 67.4167L50.9993 96.875L80.4577 67.4167Z" stroke="#FFB027" stroke-width="5" stroke-linecap="round" stroke-linejoin="round"/>
<path d="M50.9987 29.5415L38.542 41.9982C37.687 42.847 37.0084 43.8567 36.5453 44.969C36.0822 46.0812 35.8438 47.2742 35.8438 48.479C35.8438 49.6838 36.0822 50.8768 36.5453 51.9891C37.0084 53.1013 37.687 54.111 38.542 54.9598C41.9929 58.4107 47.5058 58.5369 51.167 55.2544L59.8783 47.2586C62.0618 45.2773 64.9046 44.1797 67.8531 44.1797C70.8015 44.1797 73.6444 45.2773 75.8279 47.2586L88.2845 58.4528" stroke="#FFB027" stroke-width="5" stroke-linecap="round" stroke-linejoin="round"/>
<path d="M76.2507 71.6252L67.834 63.2085" stroke="#FFB027" stroke-width="5" stroke-linecap="round" stroke-linejoin="round"/>
<path d="M63.6257 84.2502L55.209 75.8335" stroke="#FFB027" stroke-width="5" stroke-linecap="round" stroke-linejoin="round"/>
</svg>
