<svg width="33" height="33" viewBox="0 0 33 33" fill="none" xmlns="http://www.w3.org/2000/svg">
<g clip-path="url(#clip0_254_901)">
<path d="M20.192 7.35048C20.2674 7.28667 20.3592 7.24521 20.4569 7.23079C20.5547 7.21636 20.6545 7.22953 20.7451 7.26882C20.8358 7.30811 20.9136 7.37195 20.9699 7.45314C21.0262 7.53433 21.0587 7.62964 21.0637 7.7283L21.3222 12.94C21.3394 13.2831 21.4395 13.6169 21.6141 13.9128C21.7886 14.2087 22.0323 14.4578 22.3243 14.6387L26.7635 17.3869C26.8477 17.4389 26.9156 17.5133 26.9597 17.6019C27.0038 17.6904 27.0222 17.7895 27.0128 17.888C27.0035 17.9865 26.9668 18.0803 26.9068 18.159C26.8469 18.2377 26.7662 18.2981 26.6737 18.3333L21.7991 20.1853C21.4775 20.3076 21.1905 20.5063 20.9627 20.7641C20.735 21.0219 20.5733 21.3312 20.4916 21.6654L19.2566 26.7322C19.2335 26.8288 19.1838 26.9171 19.113 26.9868C19.0422 27.0565 18.9532 27.1049 18.8563 27.1265C18.7593 27.1481 18.6582 27.142 18.5645 27.1089C18.4708 27.0759 18.3883 27.0171 18.3265 26.9394L15.055 22.875C14.8394 22.6074 14.562 22.3962 14.2466 22.2595C13.9313 22.1228 13.5875 22.0648 13.2448 22.0904L8.04299 22.4819C7.94409 22.4896 7.84502 22.4694 7.75703 22.4236C7.66904 22.3778 7.59567 22.3082 7.54527 22.2228C7.49487 22.1373 7.46946 22.0395 7.47192 21.9403C7.47439 21.8411 7.50463 21.7446 7.55922 21.6618L10.4114 17.2971C10.5997 17.009 10.7151 16.6793 10.7476 16.3367C10.7802 15.994 10.7288 15.6485 10.5981 15.3301L8.61671 10.5073C8.57863 10.4156 8.56705 10.3151 8.58331 10.2171C8.59957 10.1192 8.64301 10.0278 8.70868 9.95334C8.77435 9.87889 8.85961 9.82438 8.95474 9.79602C9.04988 9.76766 9.15107 9.76659 9.24679 9.79293L14.286 11.1544C14.6179 11.2443 14.9666 11.2522 15.3022 11.1774C15.6379 11.1027 15.9503 10.9475 16.2126 10.7252L20.192 7.35048Z" fill="white" stroke="white" stroke-width="2" stroke-linecap="round" stroke-linejoin="round"/>
</g>
<defs>
<clipPath id="clip0_254_901">
<rect width="24" height="24" fill="white" transform="translate(10.5312 0.661133) rotate(23.435)"/>
</clipPath>
</defs>
</svg>
