<svg width="185" height="150" viewBox="0 0 185 150" fill="none" xmlns="http://www.w3.org/2000/svg">
<g clip-path="url(#clip0_7737_16216)">
<g filter="url(#filter0_d_7737_16216)">
<circle cx="93" cy="75" r="69.5" fill="#FF5C9E" stroke="white" stroke-width="3"/>
<rect x="3" y="87" width="179" height="23" rx="3" fill="white"/>
<path d="M13.3636 98.16C14.9796 98.16 15.9236 97.376 15.9236 96.048C15.9236 94.72 15.0596 93.936 13.4596 93.936H11.3476V98.16H13.3636ZM9.71563 104V92.576H13.6196C15.9396 92.576 17.5396 94.048 17.5396 96.032C17.5396 98.032 15.8116 99.52 13.5236 99.52H11.3476V104H9.71563ZM19.0458 104H17.3658L21.6058 92.576H23.6378L27.8778 104H26.1978L24.9818 100.72H20.2778L19.0458 104ZM20.7578 99.392H24.5018L22.6458 94.032H22.5978L20.7578 99.392ZM28.7526 92.576L31.6646 97.84H31.6806C32.6406 96.096 33.5686 94.384 34.5606 92.576H36.4166L32.4486 99.344V104H30.8326V99.344L26.8806 92.576H28.7526ZM37.8563 104V92.576L40.5283 92.592L43.6803 102.096H43.6963L46.7843 92.576H49.4563V104H47.8563V94.336H47.8243L44.5763 104H42.7523L39.5043 94.336H39.4723V104H37.8563ZM59.0403 92.576V93.952H53.4883V97.52H58.7043V98.88H53.4883V102.624H59.0883V104H51.8563V92.576H59.0403ZM61.075 92.576H63.107L67.395 99.648C67.827 100.368 68.243 101.104 68.659 101.776C68.659 100.976 68.627 100.224 68.627 99.408V92.576H70.243V104H68.179L63.955 97.072C63.491 96.304 63.075 95.568 62.659 94.896C62.675 95.696 62.691 96.528 62.691 97.376V104H61.075V92.576ZM71.6775 93.952V92.576H80.2535V93.952H76.7815V104H75.1655V93.952H71.6775ZM82.6481 100.432C82.7121 102.096 83.8481 102.912 85.4641 102.912C86.7921 102.912 87.8961 102.304 87.8961 100.96C87.8961 99.6 86.7441 99.344 85.2881 98.912C83.4001 98.352 81.4961 97.776 81.4481 95.6C81.4001 93.392 83.2561 92.304 85.3361 92.304C87.6241 92.304 89.1441 93.44 89.3361 95.776H87.7041C87.4961 94.368 86.7761 93.664 85.3201 93.664C84.0881 93.664 83.0641 94.176 83.0641 95.52C83.0641 96.64 84.1521 97.088 85.6561 97.52C87.5601 98.064 89.5121 98.496 89.5121 100.928C89.5121 103.264 87.5281 104.272 85.4641 104.272C82.9681 104.272 81.0641 103.056 81.0161 100.432H82.6481ZM95.7645 104H94.0845L98.3245 92.576H100.357L104.597 104H102.917L101.701 100.72H96.9965L95.7645 104ZM97.4765 99.392H101.221L99.3645 94.032H99.3165L97.4765 99.392ZM116.084 100.592C115.62 102.528 113.796 104.208 110.9 104.208C107.188 104.208 105.076 101.552 105.076 98.288C105.076 95.04 107.188 92.368 110.9 92.368C113.764 92.368 115.364 93.888 116.068 95.968H114.452C113.828 94.544 112.772 93.744 110.9 93.744C108.164 93.744 106.708 95.824 106.708 98.288C106.708 100.736 108.148 102.832 110.9 102.832C112.82 102.832 114.004 101.904 114.468 100.592H116.084ZM128.397 100.592C127.933 102.528 126.109 104.208 123.213 104.208C119.501 104.208 117.389 101.552 117.389 98.288C117.389 95.04 119.501 92.368 123.213 92.368C126.077 92.368 127.677 93.888 128.381 95.968H126.765C126.141 94.544 125.085 93.744 123.213 93.744C120.477 93.744 119.021 95.824 119.021 98.288C119.021 100.736 120.461 102.832 123.213 102.832C125.133 102.832 126.317 101.904 126.781 100.592H128.397ZM137.587 92.576V93.952H132.035V97.52H137.251V98.88H132.035V102.624H137.635V104H130.403V92.576H137.587ZM143.27 98.16C144.886 98.16 145.83 97.376 145.83 96.048C145.83 94.72 144.966 93.936 143.366 93.936H141.254V98.16H143.27ZM139.622 104V92.576H143.526C145.846 92.576 147.446 94.048 147.446 96.032C147.446 98.032 145.718 99.52 143.43 99.52H141.254V104H139.622ZM148.256 93.952V92.576H156.832V93.952H153.36V104H151.744V93.952H148.256ZM165.478 92.576V93.952H159.926V97.52H165.142V98.88H159.926V102.624H165.526V104H158.294V92.576H165.478ZM170.985 92.576C174.745 92.576 176.889 94.736 176.889 98.096C176.889 101.472 174.745 104 171.065 104H167.513V92.576H170.985ZM169.145 102.624H171.097C173.417 102.624 175.257 101.104 175.257 98.096C175.257 95.232 173.417 93.952 171.049 93.952H169.145V102.624Z" fill="#FF5C9E"/>
<path d="M42.4205 59.58H46.8305V81H42.4205V72.12H33.8105V81H29.4005V59.58H33.8105V68.4H42.4205V59.58ZM54.4702 74.01C54.6502 76.44 56.4202 77.85 58.8202 77.85C61.1002 77.85 62.4202 76.95 62.4202 75.12C62.4202 73.08 60.6502 72.57 57.9202 71.73C54.3802 70.68 50.8702 69.42 50.8702 65.07C50.8402 60.99 54.7402 59.07 58.6702 59.07C62.9602 59.07 66.1702 61.02 66.6502 65.94H62.2402C61.8502 63.72 60.7102 62.7 58.5502 62.7C56.6902 62.7 55.2202 63.45 55.2202 65.22C55.2202 66.87 56.8402 67.65 59.5702 68.46C63.2302 69.54 66.7702 70.59 66.7702 75.15C66.7702 79.53 62.8402 81.51 58.8202 81.51C54.1402 81.51 50.4202 79.14 49.9402 74.01H54.4702ZM84.2602 81L82.4302 75.63H74.4502L72.5902 81H68.0002L75.7102 59.58H81.2602L88.9102 81H84.2602ZM78.3802 63.63L75.6202 72.12H81.2302L78.4702 63.63H78.3802ZM97.133 57.69H100.793L93.413 84.09H89.753L97.133 57.69ZM102.848 81V59.58H116.648V63.33H107.258V68.37H115.958V72.03H107.258V81H102.848ZM122.996 74.01C123.176 76.44 124.946 77.85 127.346 77.85C129.626 77.85 130.946 76.95 130.946 75.12C130.946 73.08 129.176 72.57 126.446 71.73C122.906 70.68 119.396 69.42 119.396 65.07C119.366 60.99 123.266 59.07 127.196 59.07C131.486 59.07 134.696 61.02 135.176 65.94H130.766C130.376 63.72 129.236 62.7 127.076 62.7C125.216 62.7 123.746 63.45 123.746 65.22C123.746 66.87 125.366 67.65 128.096 68.46C131.756 69.54 135.296 70.59 135.296 75.15C135.296 79.53 131.366 81.51 127.346 81.51C122.666 81.51 118.946 79.14 118.466 74.01H122.996ZM152.786 81L150.956 75.63H142.976L141.116 81H136.526L144.236 59.58H149.786L157.436 81H152.786ZM146.906 63.63L144.146 72.12H149.756L146.996 63.63H146.906Z" fill="white"/>
<path d="M76.5 117L77.7348 120.8H81.7308L78.498 123.149L79.7328 126.95L76.5 124.601L73.2672 126.95L74.502 123.149L71.2692 120.8H75.2652L76.5 117Z" fill="white"/>
<path d="M92.7188 117L93.9536 120.8H97.9496L94.7167 123.149L95.9516 126.95L92.7188 124.601L89.4859 126.95L90.7208 123.149L87.4879 120.8H91.4839L92.7188 117Z" fill="white"/>
<path d="M108.922 117L110.157 120.8H114.153L110.92 123.149L112.155 126.95L108.922 124.601L105.689 126.95L106.924 123.149L103.691 120.8H107.687L108.922 117Z" fill="white"/>
</g>
</g>
<defs>
<filter id="filter0_d_7737_16216" x="-1" y="4" width="187" height="150" filterUnits="userSpaceOnUse" color-interpolation-filters="sRGB">
<feFlood flood-opacity="0" result="BackgroundImageFix"/>
<feColorMatrix in="SourceAlpha" type="matrix" values="0 0 0 0 0 0 0 0 0 0 0 0 0 0 0 0 0 0 127 0" result="hardAlpha"/>
<feOffset dy="4"/>
<feGaussianBlur stdDeviation="2"/>
<feComposite in2="hardAlpha" operator="out"/>
<feColorMatrix type="matrix" values="0 0 0 0 0 0 0 0 0 0 0 0 0 0 0 0 0 0 0.15 0"/>
<feBlend mode="normal" in2="BackgroundImageFix" result="effect1_dropShadow_7737_16216"/>
<feBlend mode="normal" in="SourceGraphic" in2="effect1_dropShadow_7737_16216" result="shape"/>
</filter>
<clipPath id="clip0_7737_16216">
<rect width="185" height="150" fill="white"/>
</clipPath>
</defs>
</svg>
