<svg width="24" height="24" viewBox="0 0 24 24" fill="none" xmlns="http://www.w3.org/2000/svg">
<mask id="mask0_162_542" style="mask-type:alpha" maskUnits="userSpaceOnUse" x="0" y="0" width="24" height="25">
<rect y="0.00012207" width="24" height="24" fill="#D9D9D9"/>
</mask>
<g mask="url(#mask0_162_542)">
<path d="M11.2923 18.8079H12.6578V17.5964C13.4334 17.4912 14.1357 17.1998 14.7645 16.7221C15.3933 16.2446 15.7078 15.5206 15.7078 14.5501C15.7078 13.8501 15.5013 13.2309 15.0885 12.6924C14.6757 12.154 13.8692 11.6682 12.6692 11.2349C11.6179 10.8759 10.9198 10.565 10.575 10.3021C10.2302 10.0393 10.0578 9.67196 10.0578 9.20012C10.0578 8.72829 10.2343 8.34496 10.5875 8.05012C10.9407 7.75529 11.4282 7.60787 12.05 7.60787C12.5705 7.60787 12.9903 7.73062 13.3095 7.97612C13.6288 8.22162 13.8744 8.52962 14.0462 8.90012L15.2807 8.40387C15.0717 7.87187 14.7311 7.41646 14.2587 7.03762C13.7863 6.65879 13.2692 6.44754 12.7078 6.40387V5.19237H11.3422V6.40387C10.4897 6.56804 9.835 6.91387 9.378 7.44137C8.92083 7.96904 8.69225 8.55529 8.69225 9.20012C8.69225 9.95146 8.91983 10.556 9.375 11.0136C9.83017 11.4713 10.5718 11.8847 11.6 12.2539C12.6628 12.6437 13.3888 12.9935 13.778 13.3031C14.167 13.6126 14.3615 14.0283 14.3615 14.5501C14.3615 15.1771 14.1353 15.6325 13.6827 15.9164C13.2301 16.2004 12.7192 16.3424 12.15 16.3424C11.5872 16.3424 11.0837 16.1732 10.6395 15.8349C10.1952 15.4964 9.85375 15.0015 9.61525 14.3501L8.35 14.8656C8.609 15.6078 8.98108 16.1975 9.46625 16.6346C9.95158 17.0718 10.5603 17.3757 11.2923 17.5464V18.8079ZM12 21.5001C10.6872 21.5001 9.45292 21.2505 8.29725 20.7511C7.14142 20.2518 6.13592 19.5745 5.28075 18.7194C4.42558 17.8642 3.74833 16.8587 3.249 15.7029C2.74967 14.5472 2.5 13.313 2.5 12.0001C2.5 10.6873 2.74967 9.45304 3.249 8.29737C3.74833 7.14154 4.42558 6.13604 5.28075 5.28087C6.13592 4.4257 7.14142 3.74846 8.29725 3.24912C9.45292 2.74979 10.6872 2.50012 12 2.50012C13.3128 2.50012 14.5471 2.74979 15.7028 3.24912C16.8586 3.74846 17.8641 4.4257 18.7193 5.28087C19.5744 6.13604 20.2517 7.14154 20.751 8.29737C21.2503 9.45304 21.5 10.6873 21.5 12.0001C21.5 13.313 21.2503 14.5472 20.751 15.7029C20.2517 16.8587 19.5744 17.8642 18.7193 18.7194C17.8641 19.5745 16.8586 20.2518 15.7028 20.7511C14.5471 21.2505 13.3128 21.5001 12 21.5001ZM12 20.0001C14.2333 20.0001 16.125 19.2251 17.675 17.6751C19.225 16.1251 20 14.2335 20 12.0001C20 9.76679 19.225 7.87512 17.675 6.32512C16.125 4.77512 14.2333 4.00012 12 4.00012C9.76667 4.00012 7.875 4.77512 6.325 6.32512C4.775 7.87512 4 9.76679 4 12.0001C4 14.2335 4.775 16.1251 6.325 17.6751C7.875 19.2251 9.76667 20.0001 12 20.0001Z" fill="black"/>
</g>
</svg>
