<svg width="59" height="26" viewBox="0 0 59 26" fill="none" xmlns="http://www.w3.org/2000/svg">
<g clip-path="url(#clip0_162_445)">
<path d="M7.49558 7.33157V10.5811H14.364V17.3759H7.49558V25.4258H0.442383V0.5H15.4349L15.915 7.33157H7.49558Z" fill="#BFBFBF"/>
<path d="M36.051 4.3315C38.3909 6.71995 39.5615 9.60317 39.5615 12.9805C39.5615 16.3824 38.3908 19.2774 36.051 21.6662C33.7107 24.0545 30.8881 25.2487 27.583 25.2487C24.2537 25.2487 21.4185 24.0545 19.0787 21.6662C16.7383 19.2775 15.5684 16.3824 15.5684 12.9805C15.5684 9.60307 16.7383 6.71995 19.0787 4.3315C21.4185 1.94305 24.2537 0.748779 27.583 0.748779C30.888 0.748779 33.7107 1.94305 36.051 4.3315ZM25.5564 17.9746C25.5564 18.53 25.7611 19.0122 26.1716 19.4222C26.5815 19.8327 27.0764 20.0375 27.6553 20.0375C28.2344 20.0375 28.7229 19.8327 29.121 19.4222C29.5192 19.0122 29.7182 18.53 29.7182 17.9746V7.87797C29.7182 7.29901 29.5192 6.80475 29.121 6.39427C28.723 5.9844 28.2345 5.77905 27.6553 5.77905C27.0764 5.77905 26.5816 5.9844 26.1716 6.39427C25.761 6.80475 25.5564 7.29901 25.5564 7.87797V17.9746Z" fill="#BFBFBF"/>
<path d="M50.5658 25.5L47.021 19.1852L43.5868 25.5H35.832L43.2176 12.5753L36.2382 0.5H44.2146L47.1319 5.89139L50.086 0.5H57.8037L50.9721 12.5013L58.5053 25.4999H50.5658V25.5Z" fill="#BFBFBF"/>
</g>
<defs>
<clipPath id="clip0_162_445">
<rect width="58.0627" height="25" fill="white" transform="translate(0.442383 0.5)"/>
</clipPath>
</defs>
</svg>
