<svg width="100" height="100" viewBox="0 0 100 100" fill="none" xmlns="http://www.w3.org/2000/svg">
<g clip-path="url(#clip0_162_504)">
<path d="M69 78L71.745 75.5317C75.5642 72.1503 78.0597 69.7834 79.2315 68.4308C80.4033 67.0783 81 65.8047 81 64.6325C81 63.3814 80.566 62.2994 79.6872 61.3751C78.8083 60.4509 77.7993 59.9888 76.6275 59.9888C75.9222 59.9888 75.2821 60.1353 74.7071 60.4283C74.132 60.7214 73.5244 61.2061 72.8843 61.871L69 65.6807L65.0289 61.871C64.3888 61.2061 63.7703 60.7214 63.1953 60.4283C62.6203 60.1353 62.0127 59.9888 61.3942 59.9888C60.1682 60 59.1266 60.4622 58.2803 61.3864C57.4231 62.3106 57 63.3927 57 64.655C57 65.7821 57.7486 67.2136 59.2459 68.9719C60.7432 70.7189 63.0651 72.9393 66.2116 75.6106L69 78.0113V78Z" fill="#FFE780"/>
</g>
<mask id="mask0_162_504" style="mask-type:alpha" maskUnits="userSpaceOnUse" x="12" y="12" width="76" height="76">
<rect x="12.5" y="12.5" width="75" height="75" fill="#D9D9D9"/>
</mask>
<g mask="url(#mask0_162_504)">
<path d="M20.3125 42.518V31.0664C20.3125 29.843 20.7573 28.7865 21.6469 27.8969C22.5365 27.0073 23.594 26.5625 24.8195 26.5625H75.1805C76.406 26.5625 77.4635 27.0073 78.3531 27.8969C79.2427 28.7865 79.6875 29.844 79.6875 31.0695V50H76.1414V31.0695C76.1414 30.8294 76.0414 30.6091 75.8414 30.4086C75.6409 30.2086 75.4206 30.1086 75.1805 30.1086H24.8195C24.5794 30.1086 24.3591 30.2086 24.1586 30.4086C23.9586 30.6091 23.8586 30.8294 23.8586 31.0695V42.518H20.3125ZM24.8195 73.4375C23.594 73.4375 22.5365 72.9927 21.6469 72.1031C20.7573 71.2135 20.3125 70.157 20.3125 68.9336V57.482H23.8586V68.9305C23.8586 69.1706 23.9586 69.3909 24.1586 69.5914C24.3591 69.7914 24.5794 69.8914 24.8195 69.8914H46.7969V73.4375H24.8195ZM68.75 81.4906L63.5039 77.0313C59.6336 73.7021 57.1065 71.2721 55.9227 69.7414C54.7388 68.2112 54.1469 66.6099 54.1469 64.9375C54.1469 62.8469 54.881 61.0466 56.3492 59.5367C57.818 58.0268 59.6078 57.2719 61.7188 57.2719C62.8661 57.2719 63.9583 57.5341 64.9953 58.0586C66.0323 58.5836 66.9833 59.3549 67.8484 60.3727L68.75 61.1844L69.5914 60.4023C70.4247 59.3852 71.3682 58.6091 72.4219 58.0742C73.4755 57.5393 74.5953 57.2719 75.7812 57.2719C77.8464 57.2719 79.6247 58.0268 81.1164 59.5367C82.6076 61.0466 83.3531 62.8469 83.3531 64.9375C83.3531 66.6099 82.7352 68.2273 81.4992 69.7898C80.2633 71.3523 77.6042 73.8823 73.5219 77.3797L68.75 81.4906ZM68.75 76.7906L71.2797 74.6031C74.7974 71.6063 77.0982 69.506 78.182 68.3023C79.2659 67.0982 79.8078 65.9753 79.8078 64.9336C79.8078 63.8242 79.4052 62.8607 78.6 62.043C77.7948 61.2258 76.8552 60.8172 75.7812 60.8172C75.1312 60.8172 74.5419 60.9474 74.0133 61.2078C73.4852 61.4682 72.9247 61.8951 72.332 62.4883L68.75 65.8656L65.0898 62.4883C64.4971 61.8951 63.9333 61.4682 63.3984 61.2078C62.8641 60.9474 62.3091 60.8172 61.7336 60.8172C60.6102 60.8172 59.6557 61.2258 58.8703 62.043C58.0849 62.8607 57.6922 63.8263 57.6922 64.9398C57.6922 65.9383 58.3833 67.2146 59.7656 68.7688C61.1479 70.3229 63.2872 72.2878 66.1836 74.6633L68.75 76.7906ZM34.3711 64.2727C34.0049 64.2727 33.6846 64.1987 33.4102 64.0508C33.1362 63.9023 32.899 63.6698 32.6984 63.3531L27.0016 51.7727H20.3125V48.2273H28.125C28.45 48.2273 28.7526 48.3198 29.0328 48.5047C29.3135 48.6896 29.5177 48.9297 29.6453 49.225L34.375 58.5578L45.2766 36.725C45.4208 36.4286 45.6404 36.2143 45.9352 36.082C46.2299 35.9497 46.5393 35.8836 46.8633 35.8836C47.1878 35.8836 47.4971 35.9497 47.7914 36.082C48.0857 36.2143 48.3031 36.4286 48.4438 36.725L54.1703 48.2273H64.2727V51.7727H53.125C52.75 51.7727 52.4237 51.6987 52.1461 51.5508C51.8685 51.4023 51.662 51.1698 51.5266 50.8531L46.7969 41.5203L35.8953 63.3531C35.7443 63.6698 35.5318 63.9023 35.2578 64.0508C34.9839 64.1987 34.6883 64.2727 34.3711 64.2727Z" fill="black"/>
</g>
<defs>
<clipPath id="clip0_162_504">
<rect width="24" height="18" fill="white" transform="translate(57 60)"/>
</clipPath>
</defs>
</svg>
