<svg width="24" height="24" viewBox="0 0 24 24" fill="none" xmlns="http://www.w3.org/2000/svg">
<mask id="mask0_162_524" style="mask-type:alpha" maskUnits="userSpaceOnUse" x="0" y="0" width="24" height="24">
<rect y="6.10352e-05" width="24" height="24" fill="#D9D9D9"/>
</mask>
<g mask="url(#mask0_162_524)">
<path d="M4.55415 10.9346C4.41565 10.7859 4.3464 10.6093 4.3464 10.4048C4.3464 10.2003 4.41565 10.0206 4.55415 9.86556L7.19065 7.22881L5.96165 6.00981L5.48865 6.48281C5.33348 6.63798 5.15365 6.71556 4.94915 6.71556C4.74465 6.71556 4.56807 6.63798 4.4194 6.48281C4.27457 6.34431 4.20215 6.17023 4.20215 5.96056C4.20215 5.75106 4.27457 5.57389 4.4194 5.42906L6.4194 3.43856C6.56806 3.28339 6.74465 3.20581 6.94915 3.20581C7.15365 3.20581 7.33348 3.28339 7.48865 3.43856C7.62715 3.57706 7.6964 3.75106 7.6964 3.96056C7.6964 4.17023 7.62715 4.34431 7.48865 4.48281L7.0059 4.96556L8.2349 6.18481L10.8714 3.54831C11.0264 3.39314 11.2061 3.31556 11.4106 3.31556C11.6151 3.31556 11.7917 3.39314 11.9404 3.54831C12.0956 3.69698 12.1731 3.87356 12.1731 4.07806C12.1731 4.28256 12.0956 4.46231 11.9404 4.61731L11.3231 5.21931L18.4096 12.3058C18.761 12.6571 18.9366 13.0847 18.9366 13.5886C18.9366 14.0924 18.761 14.5167 18.4096 14.8616L17.6809 15.6058L22.0596 19.9693H19.9214L16.6116 16.6596L15.8829 17.4038C15.5379 17.7486 15.1135 17.9211 14.6096 17.9211C14.1058 17.9211 13.6783 17.7486 13.3271 17.4038L6.24065 10.3173L5.62315 10.9346C5.46815 11.0796 5.28998 11.1521 5.08865 11.1521C4.88731 11.1521 4.70915 11.0796 4.55415 10.9346ZM7.28465 9.27306L14.3711 16.3596C14.4353 16.4174 14.5091 16.4463 14.5924 16.4463C14.6757 16.4463 14.7495 16.4174 14.8136 16.3596L17.3404 13.8078C17.4046 13.7501 17.4366 13.678 17.4366 13.5913C17.4366 13.5048 17.4046 13.4327 17.3404 13.3751L15.8789 11.8886L14.4116 13.3558C14.2565 13.5006 14.0783 13.5756 13.8771 13.5808C13.6758 13.586 13.5059 13.5193 13.3674 13.3808C13.2124 13.2321 13.1349 13.0556 13.1349 12.8511C13.1349 12.6466 13.2124 12.4667 13.3674 12.3116L14.8349 10.8443L13.0366 9.05581L11.5694 10.5231C11.4207 10.6616 11.2441 10.7308 11.0396 10.7308C10.8351 10.7308 10.6553 10.6616 10.5001 10.5231C10.3616 10.3681 10.2924 10.1883 10.2924 9.98381C10.2924 9.77931 10.3616 9.60265 10.5001 9.45381L11.9674 7.98656L10.2694 6.28856L7.28465 9.27306ZM7.28465 9.27306L7.34715 9.21056C7.38882 9.16889 7.44173 9.11606 7.5059 9.05206L10.2694 6.28856L7.28465 9.27306Z" fill="black"/>
</g>
</svg>
