<svg width="146" height="132" viewBox="0 0 146 132" fill="none" xmlns="http://www.w3.org/2000/svg">
<g clip-path="url(#clip0_146_742)">
<path d="M13.417 72.3715C13.7708 72.4599 14.1246 72.5041 14.4342 72.5041C14.0804 72.4599 13.7708 72.4157 13.417 72.3715Z" fill="white"/>
<path d="M14.788 67.4625C57.5977 80.9511 91.0318 52.426 133.399 66.976C133.444 65.1186 133.399 63.3054 133.399 61.4479C90.9876 46.8979 57.6419 75.423 14.788 61.9344C14.6995 61.8902 14.5226 61.846 14.4342 61.8017C14.4342 61.8017 13.7708 61.5806 13.417 61.4479V66.976C13.7708 67.1087 14.4342 67.3298 14.4342 67.3298C14.5226 67.3741 14.6995 67.4183 14.788 67.4625Z" fill="white"/>
<path d="M14.788 56.3178C34.6007 63.1727 54.4578 59.3251 74.2263 55.6987C97.2233 51.8511 111.11 48.5784 133.399 55.8313V50.3474C90.9876 35.7974 57.5977 64.3668 14.7437 50.8339C14.6553 50.7897 14.4784 50.7455 14.3899 50.7012C14.3899 50.7012 13.7266 50.5243 13.417 50.3474V55.7871C13.7708 55.964 14.4342 56.1851 14.4342 56.1851C14.5226 56.2294 14.6111 56.2736 14.788 56.3178Z" fill="white"/>
<path d="M14.8322 45.2615C51.0967 57.7329 87.3611 34.6033 123.626 41.9446C129.817 43.3598 128.711 43.1387 133.399 44.7308V39.2469C109.385 31.3748 93.4642 35.9742 68.7424 40.1314V34.5148C93.4642 30.3134 109.518 25.7583 133.399 33.6303V33.6745V30.9326V32.2593V30.8884V30.9326V28.1906C109.474 20.2744 93.3757 24.918 68.654 29.0751V23.4586C93.3315 19.3014 109.474 14.6578 133.399 22.5741V17.0459C109.518 9.12967 93.3315 13.7733 68.654 17.9304V12.3581C93.3315 8.20095 109.518 3.55733 133.399 11.4736V11.5178V5.01675V6.60885V4.97253C93.4199 -9.79861 53.3964 19.7879 13.417 4.97253V44.7308C13.7266 44.9077 14.3899 45.1288 14.3899 45.1288C14.5226 45.173 14.6995 45.2172 14.8322 45.2615ZM19.4758 43.6251C19.5643 43.9789 19.6527 44.2443 19.8296 44.775C19.2989 44.2885 18.9451 43.9347 18.5029 43.4925C18.1048 43.6694 17.7068 43.802 17.1761 44.0232C17.3088 43.6251 17.353 43.3156 17.4857 43.1387C17.6626 42.7406 17.5741 42.5195 17.1761 42.1215C16.9108 41.9004 16.7339 41.635 16.557 41.3254C16.9108 41.4581 17.1761 41.4581 17.5299 41.635C17.9279 41.8119 18.0606 41.7235 18.1491 41.3697C18.1933 41.0601 18.326 40.839 18.5029 40.3967C18.6355 40.7947 18.6798 40.9274 18.7682 41.1043C18.9746 41.7235 19.3726 42.1068 19.9623 42.2542C20.095 42.2984 20.3161 42.3426 20.4488 42.3868C20.4488 42.4311 20.493 42.4753 20.493 42.5195C20.2276 42.6522 20.0065 42.7849 19.6969 42.8291C19.3874 42.9618 19.3431 43.1829 19.4758 43.6251ZM19.52 35.4435C19.3874 35.7973 19.6969 36.3722 19.8738 36.9914C19.3874 36.5049 18.9893 36.1954 18.5913 35.7531C18.1933 35.93 17.7953 36.0627 17.3972 36.2396C17.353 36.2396 17.2646 36.1954 17.2203 36.1954C17.9722 35.3551 17.6626 34.4706 16.6012 33.763L16.557 33.5861C17.5741 33.9841 18.3702 34.0283 18.3702 32.6574C18.4144 32.7016 18.4586 32.7458 18.5471 32.79C18.6355 33.1438 18.8124 33.4534 18.9009 33.8072C18.9893 34.2052 19.1662 34.3821 19.52 34.4264C19.8296 34.4706 20.1392 34.6033 20.493 34.6917C20.493 34.7359 20.5372 34.7802 20.5372 34.8244C20.2276 35.0455 19.6085 35.0897 19.52 35.4435ZM24.031 40.7063C24.1637 41.0601 24.2079 41.3697 24.3406 41.6792C24.2963 41.6792 24.2963 41.7235 24.2521 41.7235C23.8541 41.3254 23.4561 41.0601 23.058 40.6621C22.66 40.8832 22.262 41.0159 21.7313 41.3254C21.864 40.9274 21.9082 40.5736 22.0409 40.3525C22.1735 40.0429 22.1293 39.7776 21.7755 39.5122C21.5102 39.3353 21.289 39.0257 21.0237 38.8046C21.0532 38.7457 21.0827 38.7162 21.1121 38.7162C22.1293 39.07 22.9254 38.9815 22.9254 37.6548C22.9696 37.699 23.0138 37.699 23.1023 37.7874C23.1907 38.097 23.3676 38.4066 23.4118 38.7604C23.5003 39.1142 23.6772 39.2911 23.9868 39.3353C24.3406 39.3795 24.6501 39.468 24.9597 39.5122C24.9597 39.5564 25.0039 39.6007 25.0039 39.6449C24.7386 39.7776 24.4732 39.9545 24.2079 40.0871C23.9868 40.1314 23.8541 40.3083 24.031 40.7063ZM24.2963 32.3478C23.9425 32.3478 23.8541 32.6131 23.9868 32.9669C24.1194 33.3207 24.1637 33.5861 24.3406 34.1168C23.8099 33.6745 23.4118 33.3207 23.0138 32.9227C22.6158 33.1438 22.2178 33.2765 21.8197 33.4976C21.7755 33.4976 21.7755 33.4534 21.7313 33.4534C21.8197 33.1438 21.864 32.8785 22.0409 32.6131C22.1735 32.3036 22.0851 32.0824 21.7755 31.8171C21.4659 31.596 21.2448 31.2864 20.9795 31.1095L21.0679 31.021C21.5102 31.0653 22.0851 31.2864 22.4389 31.1979C22.7485 31.1095 22.7927 30.4903 22.9254 30.0481C22.9696 30.0481 23.0138 30.0481 23.058 30.0923C23.1465 30.4019 23.2349 30.7115 23.3676 31.021C23.4561 31.3748 23.633 31.5517 23.9868 31.6402C24.2963 31.6402 24.6059 31.7729 25.0039 31.9055C24.827 32.0382 24.6059 32.2593 24.2963 32.3478ZM28.94 46.3671H28.7631C28.365 46.0133 27.967 45.7479 27.569 45.3499C27.171 45.6153 26.7729 45.7922 26.2865 46.1017C26.4191 45.5268 26.7287 45.0846 26.596 44.6423C26.5076 44.2885 25.9327 43.9789 25.5789 43.5809C25.6231 43.5367 25.6231 43.4925 25.6231 43.4925C26.1096 43.5367 26.6403 43.7578 26.9941 43.5809C27.3036 43.4482 27.3479 42.8291 27.5248 42.2984C27.6132 42.608 27.7901 42.8291 27.7901 43.006C27.8786 43.6251 28.2324 44.0232 28.8957 43.9789C29.0726 43.9347 29.2938 44.0232 29.4707 44.0674C29.5149 44.1116 29.5591 44.1558 29.6033 44.2001C28.4977 44.4654 28.2766 45.173 28.94 46.3671ZM28.94 36.726C28.4977 36.9914 28.4093 37.2567 28.5862 37.6548C28.6746 37.9201 28.7188 38.1855 28.8515 38.495C28.822 38.5245 28.7925 38.554 28.7631 38.5835C28.365 38.2739 27.967 37.9643 27.569 37.5663C27.171 37.8317 26.7729 37.9643 26.3749 38.2297C26.3307 38.2297 26.2422 38.2297 26.198 38.1855C26.9498 37.2568 26.6403 36.4165 25.5346 35.7973C25.6231 35.7089 25.6673 35.7089 25.7115 35.7089C26.7729 36.0184 27.4805 35.8415 27.4805 34.5148C27.5248 34.559 27.569 34.559 27.6574 34.6475C27.7459 34.9571 27.9228 35.2666 28.0112 35.5762C28.0997 35.93 28.2766 36.1069 28.6304 36.1069C28.94 36.1069 29.2495 36.1954 29.6476 36.328C29.4264 36.4165 29.2495 36.6376 28.94 36.726ZM33.1413 41.9004C33.274 42.2099 33.3182 42.4753 33.4509 42.8291C33.4214 42.8586 33.3919 42.8881 33.3624 42.9175C32.9644 42.5637 32.5664 42.3426 32.1684 41.9888C31.7704 42.2542 31.3723 42.4753 30.8416 42.7849C30.9743 42.3426 31.0185 41.9888 31.1954 41.8119C31.3723 41.4139 31.2839 41.1928 30.8859 40.9274C30.6205 40.7505 30.3994 40.5294 30.134 40.3083C30.1783 40.264 30.2225 40.2198 30.2225 40.2198C30.6647 40.2198 31.2397 40.3525 31.5935 40.2198C31.903 40.0871 31.9473 39.468 32.1684 39.0257C32.2568 39.3353 32.3453 39.6007 32.478 39.9545C32.5664 40.3083 32.7433 40.4409 33.0971 40.4409C33.4067 40.3967 33.7162 40.4852 34.1143 40.5736C33.8489 40.7505 33.6278 40.9716 33.3182 41.1043C33.0529 41.2812 33.0086 41.4581 33.1413 41.9004ZM33.5836 33.2765C33.0529 33.4976 33.0086 33.8514 33.2298 34.3821C33.3182 34.559 33.3625 34.8244 33.4951 35.2224C32.9644 34.8244 32.6106 34.559 32.1684 34.2052C31.7704 34.4706 31.3723 34.6917 30.9743 34.9571C30.9301 34.8686 30.8859 34.8244 30.9301 34.8244C31.3723 33.9841 31.3723 33.1881 30.3109 32.6574C30.2667 32.6574 30.2667 32.5689 30.1783 32.3478C31.4166 32.8343 32.0357 32.4362 32.0799 31.1537C32.1242 31.1537 32.1684 31.1979 32.2126 31.1979C32.3011 31.5075 32.478 31.7286 32.5222 32.1267C32.6106 32.5247 32.8318 32.7016 33.274 32.6574C33.5836 32.6131 33.8489 32.7016 34.2027 32.79C33.9816 33.0112 33.8047 33.188 33.5836 33.2765ZM37.6523 45.8806C37.7407 46.1902 37.8292 46.4555 38.0061 46.942C37.4754 46.544 37.0773 46.3229 36.6793 46.0133C36.2813 46.3229 35.8833 46.544 35.3526 46.8978C35.4852 46.4555 35.5295 46.146 35.6621 45.9248C35.839 45.4826 35.7506 45.173 35.3526 44.9961C35.0872 44.8634 34.9103 44.6423 34.5565 44.377C35.2641 44.377 35.7948 44.5539 36.1486 44.2885C36.4582 44.0232 36.5466 43.4482 36.7235 42.8733C36.8562 43.3156 37.0331 43.6251 37.0773 43.9347C37.1658 44.2885 37.3427 44.377 37.6523 44.377C38.0061 44.3327 38.3156 44.377 38.6252 44.377C38.6252 44.4212 38.6694 44.4654 38.6694 44.5096C38.4041 44.6865 38.183 44.9077 37.9176 45.0403C37.5638 45.2615 37.5196 45.5268 37.6523 45.8806ZM37.9176 37.4779C37.6523 37.6548 37.5638 37.8317 37.7407 38.2297C37.8734 38.5393 37.9176 38.8046 38.0945 39.2911C37.5638 38.8931 37.1658 38.6719 36.7678 38.3624C36.3697 38.6719 35.9717 38.8931 35.441 39.2469C35.5737 38.6719 35.9275 38.1412 35.7948 37.7874C35.7064 37.3894 35.1757 37.1683 34.7776 36.8145V36.726C35.2641 36.726 35.839 36.8587 36.1486 36.6376C36.4582 36.4607 36.5024 35.7973 36.7678 35.3993C36.8562 35.7089 36.9447 35.9742 37.0773 36.2838C37.1658 36.6376 37.3427 36.7703 37.6965 36.7703C38.0061 36.726 38.3156 36.7703 38.7137 36.8587C38.4483 37.0798 38.2272 37.3452 37.9176 37.4779ZM42.8708 40.9716C42.3696 41.3549 42.2222 41.8561 42.4286 42.4753C42.4728 42.608 42.517 42.7849 42.5612 43.0502C42.0748 42.6964 41.6767 42.4753 41.2345 42.1657C40.8365 42.4753 40.4384 42.7406 40.0404 43.0502H39.8635C40.6153 41.9888 40.35 41.1928 39.2444 40.7505C39.2886 40.6621 39.2886 40.6178 39.2886 40.6178C40.3058 40.7063 41.146 40.5294 41.0576 39.07C41.1018 39.1142 41.1903 39.1584 41.2345 39.2026C41.2787 39.3353 41.3672 39.5122 41.4114 39.6891C41.6178 40.2788 42.0305 40.5589 42.6497 40.5294H43.2688C43.1362 40.7505 43.0035 40.8832 42.8708 40.9716ZM47.2049 44.7308C46.7626 45.0846 46.6742 45.3057 46.8511 45.7479C46.9395 46.0133 46.9837 46.2786 47.1606 46.6767C46.6299 46.3671 46.2319 46.146 45.8339 45.8364C45.4359 46.1902 45.0378 46.4113 44.5514 46.8536C44.684 46.2786 44.9936 45.7037 44.8609 45.3499C44.7725 44.9519 44.1976 44.8192 43.8438 44.5096V44.3327C45.0378 44.5981 45.7012 44.2001 45.7454 42.8291C45.7897 42.8291 45.8339 42.8733 45.8781 42.8733C45.9666 43.1829 46.1435 43.4482 46.2319 43.7136C46.3204 44.0674 46.4973 44.2001 46.8511 44.1116C47.1606 44.0232 47.4702 44.0674 47.8682 44.1116C47.6471 44.3327 47.4702 44.5096 47.2049 44.7308ZM47.1164 37.0798C46.7626 37.301 46.6742 37.5221 46.8068 37.8759C46.9395 38.1855 46.9837 38.4508 47.1606 38.8931C46.6299 38.5835 46.2319 38.3624 45.8339 38.0528C45.4359 38.4066 45.0378 38.6277 44.5071 39.07C44.6398 38.6277 44.684 38.3181 44.8167 38.0528C44.9494 37.6548 44.9052 37.4336 44.5514 37.2125C44.286 37.0798 44.0649 36.9029 43.7995 36.5934C44.1533 36.5934 44.4187 36.5049 44.7725 36.5491C45.1705 36.5491 45.3474 36.4165 45.4359 36.0185C45.4801 35.7089 45.6128 35.4435 45.7454 35.1782H45.8781C45.9666 35.4435 46.055 35.6204 46.1435 35.8415C46.2319 36.3722 46.5415 36.5492 47.0722 36.4165C47.3375 36.3722 47.5587 36.3722 47.8682 36.4607C47.6471 36.6376 47.426 36.903 47.1164 37.0798ZM56.0941 21.6896C56.1825 21.8665 56.1825 22.0876 56.271 22.3087C55.7403 22.0434 55.3423 21.6453 54.9 21.6896C54.502 21.7338 54.104 22.2645 53.6617 22.6625C53.7944 22.0876 54.104 21.5127 53.9713 21.1146C53.8828 20.7608 53.3079 20.6282 52.9541 20.3628C53.0426 20.3186 53.0868 20.2744 53.0868 20.2744C54.1482 20.2744 54.8558 19.9206 54.8558 18.5938C54.9 18.638 54.9442 18.638 55.0327 18.638C55.1211 18.9476 55.298 19.1687 55.3865 19.4783C55.4749 19.8321 55.6518 19.9206 56.0056 19.8763C56.3152 19.7879 56.6248 19.7879 57.0228 19.8321C56.8901 19.9648 56.7132 20.1859 56.5363 20.3186C55.9172 20.7166 55.7845 21.1589 56.0941 21.6896ZM56.0056 36.9472C56.0941 37.2125 56.1383 37.4779 56.271 37.699L56.1825 37.7874C55.7845 37.5663 55.3865 37.3452 54.9885 37.1241C54.5904 37.4779 54.1924 37.7432 53.6617 38.2297C53.7502 37.8759 53.7944 37.699 53.8386 37.5221C54.1482 36.4607 54.2366 36.7261 53.3521 36.1954C53.2637 36.1069 53.0868 36.0627 52.9983 35.93V35.8415C52.9983 35.8415 52.9983 35.7973 53.0426 35.7973C54.0597 35.7973 54.8558 35.4878 54.8558 34.1168C54.9 34.161 54.9442 34.161 55.0327 34.161C55.1211 34.4706 55.298 34.6917 55.3865 35.0455C55.4749 35.3993 55.6961 35.4878 56.0056 35.3993C56.3152 35.3109 56.6248 35.3109 57.0228 35.3551C56.8459 35.5762 56.669 35.7973 56.4037 35.9742C55.9172 36.2396 55.7845 36.5049 56.0056 36.9472ZM61.1357 38.9373C60.6345 39.3795 60.4871 39.9102 60.6935 40.5294C60.7377 40.6621 60.7819 40.839 60.8261 41.1043C60.3397 40.839 59.9417 40.6178 59.4994 40.3967C59.1014 40.7505 58.7034 41.1043 58.3053 41.4139C58.2611 41.4139 58.1727 41.4139 58.1284 41.4581C58.8803 40.264 58.6149 39.5122 57.5093 39.2469C57.5535 39.1584 57.5535 39.1142 57.5535 39.1142C58.5707 39.07 59.411 38.8046 59.3225 37.3452C59.3667 37.3894 59.4552 37.4336 59.4994 37.4336C59.5436 37.5663 59.6321 37.7432 59.6763 37.8759C59.8827 38.4361 60.2955 38.6719 60.9146 38.5835C61.0473 38.5835 61.2684 38.5393 61.5338 38.5393C61.4011 38.7162 61.2242 38.8488 61.1357 38.9373ZM60.8704 33.2765C60.3839 33.0112 59.9859 32.8343 59.5436 32.6131C59.1456 32.9669 58.7476 33.2765 58.3496 33.6303C58.3201 33.5713 58.3053 33.5271 58.3053 33.4976C58.3938 33.0554 58.7034 32.4805 58.5707 32.1267C58.4822 31.7729 57.9515 31.6402 57.5535 31.4191L57.642 31.3306C58.7034 31.2864 59.411 30.9326 59.411 29.6058C59.4552 29.6501 59.4994 29.6501 59.5436 29.6943C59.6321 30.0039 59.809 30.225 59.8974 30.5788C59.9859 30.9326 60.207 31.021 60.5166 30.9326C60.8262 30.8441 61.1357 30.8441 61.4453 30.7999C61.4453 30.8441 61.4453 30.8884 61.4895 30.9326C61.1357 31.2864 60.5608 31.596 60.4724 32.0382C60.3839 32.2593 60.6493 32.7458 60.8704 33.2765ZM65.116 35.3551C65.2486 35.6204 65.2929 35.8858 65.4698 36.3722C64.9391 36.1069 64.541 35.93 64.143 35.7089C63.745 36.1069 63.347 36.3722 62.8163 36.8587C62.9489 36.3722 62.9932 36.0627 63.1259 35.7973C63.2585 35.3551 63.2143 35.1782 62.8605 35.0013C62.5952 34.9128 62.374 34.7359 62.1087 34.6032L62.1529 34.5148C63.1701 34.4706 63.9661 34.1168 63.9661 32.7458C64.0103 32.79 64.0546 32.79 64.143 32.79C64.2315 33.0554 64.4084 33.2765 64.4526 33.5419C64.541 34.0283 64.8064 34.1168 65.2486 33.9399C65.5582 33.8514 65.7793 33.8514 66.1331 33.8514C65.8678 34.0726 65.6467 34.3821 65.3371 34.559C65.0718 34.8244 64.9391 35.0455 65.116 35.3551ZM63.0374 11.0756C63.4354 11.0313 63.5681 10.8987 63.6565 10.5449C63.7008 10.2353 63.8335 9.92572 64.0103 9.48347C64.0988 9.66037 64.143 9.7046 64.1873 9.79305C64.6295 10.766 64.5853 10.766 65.7794 10.6333C65.8236 10.6333 65.912 10.5891 66.0889 10.6333L65.6467 11.0756C65.1455 11.5178 64.998 12.0485 65.2044 12.6677C65.2486 12.7561 65.2486 12.8446 65.2929 13.0215C65.2929 13.051 65.2781 13.0952 65.2486 13.1541C64.4084 12.535 63.6566 12.4023 62.8605 13.6848C62.8163 13.6406 62.8163 13.5522 62.772 13.5079C62.8605 13.1984 62.9047 12.8446 63.0816 12.535C63.2143 12.137 63.1701 12.0043 62.8163 11.8274C62.5067 11.7389 62.2856 11.5178 62.0202 11.2967C62.4183 11.2082 62.7278 11.0756 63.0374 11.0756ZM65.116 19.9648C65.2486 20.1859 65.2929 20.4955 65.2929 20.8493C65.0275 20.7166 64.7622 20.5839 64.541 20.4513C64.2315 20.1859 63.9661 20.2744 63.6565 20.5839C63.3912 20.8051 63.1701 21.0262 62.8163 21.2031C62.9047 20.8935 62.949 20.5397 63.1259 20.2301C63.2585 19.8321 63.2143 19.6994 62.8605 19.5225C62.5509 19.4341 62.3298 19.213 62.0644 18.9918C62.374 18.9034 62.6836 18.8149 63.0374 18.7707C63.3912 18.7707 63.5681 18.5938 63.6565 18.24C63.7008 17.9304 63.8335 17.6209 63.9661 17.3113C64.0103 17.3113 64.0546 17.3113 64.0988 17.2671C64.143 17.3555 64.1873 17.3997 64.1873 17.5324C64.4526 18.181 64.9538 18.4464 65.6909 18.3285C65.7793 18.3285 65.8678 18.2842 66.0889 18.2842C65.7351 18.5938 65.514 18.8592 65.2486 19.0361C65.0275 19.3014 64.8948 19.611 65.116 19.9648ZM63.0374 26.6428C63.4354 26.5985 63.6123 26.4659 63.7008 26.0236C63.745 25.714 63.8777 25.4045 64.0546 24.9622C64.1872 25.3602 64.3642 25.714 64.4526 25.9352C64.541 26.289 64.7622 26.3774 65.0718 26.289C65.3813 26.2005 65.6909 26.2005 66.0005 26.1121C66.0447 26.1563 66.0889 26.2005 66.1331 26.2005C65.0275 26.7312 64.6737 27.5273 65.3813 28.5002C65.3371 28.5002 65.2929 28.5002 65.2044 28.5887C64.8064 28.4118 64.4084 28.1906 64.0103 28.0137C63.6123 28.4118 63.2143 28.6771 62.6836 29.1636C62.7721 28.8098 62.8163 28.5887 62.8605 28.456C63.0669 27.8663 62.9047 27.4388 62.374 27.1735C62.2413 27.085 62.1087 27.0408 61.976 26.7754C62.4183 26.7754 62.7278 26.6428 63.0374 26.6428ZM62.5951 42.1215C63.2143 42.0036 63.6271 41.6203 63.8335 40.9716C63.8777 40.839 63.9219 40.7063 63.9661 40.5294C64.0103 40.4852 64.0546 40.4409 64.143 40.3967C64.143 41.7677 64.9391 41.8561 65.9562 41.5466C65.9562 41.5466 65.9562 41.5908 66.0447 41.635C65.7793 41.8561 65.5582 42.1215 65.2929 42.2984C64.9391 42.5195 64.8506 42.8291 65.0275 43.1387C65.1602 43.404 65.2044 43.6694 65.3813 44.1558C64.8506 43.8463 64.4968 43.6694 64.0546 43.4482C63.6566 43.802 63.2585 44.1116 62.8605 44.5096C62.8163 44.5096 62.772 44.4654 62.772 44.4654C62.8605 44.2001 62.9047 43.9347 63.0374 43.7578C63.3027 43.2271 63.1701 42.8291 62.6836 42.6964C62.5067 42.6522 62.2856 42.4753 61.9318 42.2984C62.2856 42.1657 62.4625 42.1215 62.5951 42.1215ZM58.4822 15.675C58.9687 15.675 59.1456 15.4538 59.2783 14.9674C59.3225 14.702 59.4552 14.3924 59.5879 14.1271C59.6763 14.1713 59.7205 14.1713 59.7205 14.1713C59.8974 14.5693 59.9859 15.1 60.2955 15.3212C60.605 15.4538 61.18 15.2327 61.7549 15.1443C61.2684 15.675 60.6935 15.9845 60.5608 16.3826C60.3839 16.7806 60.6493 17.2671 60.8261 17.6651C60.7819 17.6651 60.7377 17.7093 60.7377 17.6651C60.3397 17.444 59.9417 17.1344 59.5436 17.1786C59.1456 17.2228 58.7476 17.7535 58.2169 18.24C58.3496 17.7978 58.3938 17.3997 58.5707 17.1344C58.7034 16.7806 58.6149 16.6037 58.3053 16.4268C57.9958 16.3383 57.8189 16.1172 57.5535 15.8961C57.8631 15.7634 58.1727 15.675 58.4822 15.675ZM57.642 23.547C58.7034 23.547 59.411 23.0163 59.4552 21.8222C59.4994 21.8665 59.5436 21.9107 59.5879 21.9107C59.6763 22.2203 59.8532 22.4414 59.8974 22.751C59.9859 23.149 60.207 23.2374 60.5608 23.149C60.8704 23.0605 61.1357 23.0605 61.5338 23.0605C61.2684 23.2817 61.0473 23.5912 60.7377 23.7681C60.3839 23.9893 60.3397 24.2546 60.4724 24.6084C60.5608 24.918 60.6493 25.1391 60.7819 25.5371C60.2955 25.2718 59.8532 24.8738 59.4552 24.9622C59.0572 25.0064 58.6591 25.5814 58.2611 25.8909C58.2169 25.8467 58.2169 25.8025 58.2169 25.8025C58.6591 24.7411 58.6149 23.945 57.4208 23.7239C57.5977 23.6355 57.642 23.547 57.642 23.547ZM56.3152 43.802C55.873 44.1116 55.8287 44.4212 56.0056 44.775C56.0941 45.0403 56.1383 45.3057 56.3152 45.6595C55.9614 45.5268 55.7845 45.3941 55.6518 45.2615C55.4749 45.173 55.2538 44.9961 55.0327 44.9077C54.6347 45.2615 54.2366 45.571 53.8386 45.8806C53.7944 45.8806 53.7059 45.8806 53.6617 45.9248C54.3251 44.775 54.104 44.0232 53.0426 43.7136L53.0868 43.6251C54.104 43.5809 54.9 43.3156 54.9 41.9446C54.9442 41.9888 54.9885 41.9888 55.0769 41.9888C55.1211 42.1215 55.2096 42.2984 55.2538 42.4311C55.4602 42.9913 55.873 43.2271 56.4921 43.1387C56.6248 43.1387 56.8459 43.0944 57.1113 43.0944C56.7575 43.3598 56.5363 43.6694 56.3152 43.802ZM53.9713 12.4465C54.3693 12.4465 54.502 12.2696 54.5904 11.9158C54.6347 11.6063 54.7673 11.2967 54.9442 10.8544C55.0327 11.0313 55.0769 11.1198 55.1211 11.164C55.3865 11.8421 55.9172 12.137 56.7132 12.0485H56.8901C56.9344 12.0927 56.9786 12.137 57.0228 12.137C55.7845 12.7119 55.5634 13.5522 56.271 14.4809C56.2268 14.4809 56.1383 14.4809 56.0941 14.5251C55.8287 14.4367 55.6076 14.304 55.4307 14.1271C55.0769 13.8175 54.8116 13.906 54.4578 14.2598C54.2809 14.4809 54.0155 14.6578 53.6175 14.9231C53.7502 14.4367 53.7944 14.1271 53.9713 13.8175C54.104 13.4637 54.0597 13.2868 53.7059 13.1099C53.3964 13.0215 53.1752 12.7561 52.9099 12.535C53.3521 12.535 53.6175 12.4465 53.9713 12.4465ZM53.9271 27.9253C54.3251 27.9253 54.4578 27.7484 54.5462 27.3946C54.5904 27.085 54.7231 26.7754 54.8558 26.4659C54.9 26.4216 54.9885 26.4216 55.0327 26.3332C55.0327 27.7042 55.7845 27.8368 56.8459 27.5273C56.8459 27.5273 56.8459 27.5715 56.8901 27.6157C56.8017 27.7042 56.7132 27.8368 56.5806 27.9695C55.7845 28.6329 55.7845 28.5887 56.0941 29.5174C56.1383 29.6501 56.1383 29.827 56.2268 30.0923C55.7403 29.827 55.3423 29.6501 54.9 29.3847C54.502 29.6943 54.104 30.0039 53.5733 30.4903C53.7059 30.0481 53.7502 29.6943 53.8828 29.4289C54.0597 28.9867 53.9713 28.8098 53.5733 28.6329C53.3079 28.5444 53.0868 28.3233 52.9099 28.058C53.2637 28.0137 53.5733 27.9253 53.9271 27.9253ZM52.4676 39.8218C52.2023 40.0429 51.9369 40.264 51.6716 40.4852C51.3178 40.7505 51.2736 41.0159 51.362 41.2812C51.4947 41.5908 51.5389 41.9004 51.7158 42.3426C51.1851 41.9888 50.7871 41.8119 50.3891 41.5466C49.991 41.9004 49.593 42.1657 49.195 42.5195L49.1508 42.4311C49.2392 41.9888 49.5488 41.4139 49.4603 41.0159C49.3719 40.6621 48.8412 40.4852 48.3547 40.1314C48.6643 40.0871 48.8412 40.0429 48.9739 40.0429C49.593 39.984 50.0205 39.6302 50.2564 38.9815C50.3006 38.8488 50.3448 38.6719 50.5217 38.4066C50.6544 38.8489 50.8313 39.1142 50.8755 39.3795C50.964 39.7333 51.1409 39.8218 51.4505 39.7776C51.8043 39.6891 52.1138 39.6891 52.4234 39.6449C52.4234 39.7333 52.4676 39.7776 52.4676 39.8218ZM52.335 32.1267C51.9812 32.4805 51.4505 32.7458 51.362 33.1438C51.2736 33.4976 51.5389 33.9841 51.7158 34.5148C51.2293 34.2052 50.8313 33.9841 50.3891 33.763C49.991 34.1168 49.593 34.3821 49.1508 34.7802C50.0795 32.79 48.8854 33.0112 48.3989 32.4805C48.3989 32.4805 48.3989 32.4362 48.4432 32.4362C49.4603 32.4805 50.2564 32.1267 50.2564 30.7999C50.3006 30.8441 50.3448 30.8441 50.4333 30.8884C50.5217 31.1979 50.6986 31.4191 50.7871 31.7729C50.8755 32.1267 51.0524 32.2151 51.362 32.1709C51.6716 32.0824 52.0254 32.0824 52.3792 32.0382C52.335 32.0824 52.335 32.1267 52.335 32.1267ZM49.3719 16.7806C49.8141 16.7806 49.991 16.6479 50.0353 16.2057C50.0795 15.8961 50.2122 15.675 50.3448 15.2327C50.4333 15.3654 50.4775 15.4096 50.4775 15.4981C50.566 16.471 51.0967 16.869 52.0696 16.5152C52.1138 16.5152 52.2023 16.5152 52.2465 16.5595C52.2465 16.6037 52.2465 16.6479 52.2023 16.6921C51.8485 17.0459 51.3178 17.3113 51.2293 17.7093C51.1851 18.0631 51.5389 18.5054 51.6716 19.0361C51.4947 18.9476 51.362 18.9918 51.3178 18.9476C50.6544 18.24 49.991 18.4169 49.3719 19.1687C49.3277 19.213 49.2392 19.213 49.0623 19.3456C49.195 18.9476 49.2392 18.5938 49.3719 18.2842C49.5046 17.9304 49.4603 17.7535 49.1065 17.5766C48.797 17.4882 48.5758 17.2228 48.3547 17.0017C48.7527 16.869 49.0623 16.7806 49.3719 16.7806ZM48.9296 24.5642C49.5488 24.5052 49.9616 24.1514 50.1679 23.5028C50.2122 23.3701 50.2564 23.1932 50.4333 22.9279C50.566 23.3701 50.7429 23.6355 50.7871 23.9008C50.8755 24.2546 51.0967 24.3431 51.4062 24.2546C51.7158 24.1662 52.0254 24.1662 52.335 24.1662C51.4505 24.8738 50.964 25.6256 51.76 26.5985H51.5831C51.3178 26.4659 51.0524 26.289 50.7871 26.1563C50.4775 25.9352 50.3006 25.9352 49.991 26.2447C49.7257 26.4659 49.5046 26.687 49.1065 26.8197C49.195 26.5101 49.2392 26.2447 49.3719 25.8909C49.5488 25.4487 49.4603 25.2276 49.0623 25.0507C48.797 24.9622 48.6201 24.7411 48.222 24.5642C48.5758 24.6526 48.797 24.6084 48.9296 24.5642ZM45.259 13.1984C45.5685 12.933 45.6128 12.3139 45.8339 11.7389C45.9666 12.1812 46.1435 12.4023 46.1877 12.6677C46.2761 13.1099 46.5415 13.1984 46.9395 13.1541C47.2491 13.0657 47.5144 13.1099 47.9567 13.0657C47.4702 13.5079 46.9395 13.8175 46.7626 14.1713C46.6742 14.5251 46.9395 15.0558 47.1164 15.5423C46.6299 15.2769 46.1877 14.8347 45.7897 14.8347C45.3916 14.8789 44.9936 15.3654 44.5071 15.7634C44.5956 15.3654 44.6398 15.1443 44.8167 14.8789C45.0821 14.3924 44.9052 14.0386 44.4187 13.8617C44.2418 13.7733 44.0207 13.5522 43.7553 13.4195C44.3745 13.331 44.9936 13.4195 45.259 13.1984ZM43.888 21.1589C44.3745 21.0704 44.9052 21.2031 45.259 20.9377C45.5685 20.6724 45.6128 20.0532 45.8339 19.4783C45.9666 19.9206 46.1435 20.1417 46.1877 20.407C46.2761 20.8493 46.5415 20.9377 46.9395 20.8935C47.2491 20.8051 47.5144 20.8493 47.9125 20.8493C46.8068 21.4684 46.5415 22.2203 47.0722 23.2817C46.6742 23.0605 46.2319 22.6625 45.8339 22.6183C45.4359 22.6625 45.0378 23.149 44.6398 23.4586C44.5956 23.4143 44.5956 23.3701 44.5956 23.3701C45.0378 22.3529 44.9936 21.5569 43.7111 21.2031C43.7553 21.2031 43.8438 21.1589 43.888 21.1589ZM43.8438 28.854C44.1091 28.854 44.3302 28.7656 44.5071 28.8098C45.1263 28.854 45.3916 28.5887 45.4801 28.0137C45.5243 27.8368 45.6128 27.6157 45.657 27.3946H45.7897C45.8781 27.7042 46.055 27.9695 46.0992 28.2791C46.1877 28.6771 46.4088 28.7656 46.7626 28.7213C47.0722 28.6329 47.3375 28.6771 47.7356 28.7213C47.4702 28.8982 47.2491 29.2078 46.9837 29.3405C46.6299 29.5616 46.5857 29.827 46.7184 30.1365C46.8511 30.4461 46.8953 30.7115 47.0722 31.1537C46.5415 30.8441 46.1877 30.623 45.7454 30.3134C45.3474 30.6672 44.9494 30.8884 44.5071 31.2422C44.4629 31.1979 44.4629 31.1537 44.4629 31.1537C44.9052 30.1365 44.8609 29.3405 43.5784 28.9867C43.7553 28.8982 43.7995 28.8982 43.8438 28.854ZM39.4213 17.3997C40.4384 17.5324 41.2345 17.2228 41.2345 15.8961C41.2787 15.9403 41.3672 15.9403 41.4114 15.9845C41.4998 16.2941 41.5883 16.5595 41.721 16.869C41.8094 17.2228 41.9863 17.3555 42.3401 17.3555C42.6497 17.3113 42.9593 17.3113 43.5342 17.3113C43.1362 17.6209 42.915 17.8862 42.6055 18.0189C42.2517 18.1516 42.119 18.3727 42.2959 18.6823C42.4286 18.9918 42.4728 19.2572 42.6497 19.7437C42.3843 19.611 42.2074 19.4783 42.119 19.3899C41.5883 19.0655 41.0871 19.0803 40.6153 19.4341C40.4827 19.5225 40.3058 19.611 40.0846 19.8321C40.2173 19.2572 40.5269 18.7265 40.4384 18.3285C40.35 17.9304 39.7751 17.7535 39.4213 17.3997ZM40.748 24.9622C41.0576 24.6969 41.1018 24.1219 41.2787 23.6797C41.3229 23.7239 41.4114 23.7239 41.4114 23.7239C41.5441 24.7853 42.2074 25.2718 43.4457 24.8738C43.2688 25.1391 43.1804 25.1833 43.1362 25.2276C42.1632 25.714 42.0305 26.3774 42.517 27.2177V27.3946C42.4286 27.3504 42.3843 27.3504 42.3401 27.3061C41.6767 26.5543 40.9691 26.5985 40.3058 27.3504C40.2615 27.3946 40.2173 27.3946 40.0404 27.4388C40.1289 27.0408 40.2173 26.7754 40.35 26.4659C40.4827 26.1121 40.3942 25.9352 40.0846 25.714C39.7751 25.5814 39.5982 25.316 39.2001 25.0949C39.8193 25.1391 40.3942 25.1833 40.748 24.9622ZM40.3058 32.79C40.7038 32.8343 40.8365 32.7016 40.9249 32.3478C40.9691 32.0382 41.1018 31.7729 41.2345 31.4633C41.3229 31.5075 41.3672 31.5075 41.3672 31.5075C41.4998 32.5689 42.119 33.0996 43.3131 32.6574V32.8343C43.1362 32.9669 42.915 33.2323 42.6939 33.365C42.2074 33.6303 42.1632 33.9399 42.3401 34.4264C42.4286 34.6033 42.4728 34.8686 42.4728 35.2224C42.0748 34.9571 41.6767 34.7359 41.2787 34.4706C40.8807 34.7802 40.4827 35.0013 39.952 35.3993C40.0404 34.9571 40.0846 34.6475 40.2615 34.3821C40.3942 33.9841 40.35 33.763 39.9962 33.5419C39.7308 33.4092 39.5097 33.1881 39.1559 32.9669C39.6424 32.9227 39.9962 32.79 40.3058 32.79ZM38.1387 23.6355H37.9618C37.6965 23.4586 37.4311 23.2817 37.1658 23.1048C36.8562 22.8394 36.6793 22.8394 36.3697 23.1048C36.1044 23.2817 35.839 23.5028 35.441 23.7239C35.5737 23.2817 35.5737 22.9721 35.7506 22.7067C35.9275 22.2645 35.7948 22.0434 35.441 21.8222C35.1757 21.6896 34.9988 21.4684 34.7776 21.1589C35.1314 21.1589 35.3968 21.1589 35.7506 21.2031C36.1486 21.2473 36.3255 21.1146 36.414 20.7166C36.4582 20.407 36.5909 20.1417 36.7678 19.6994C36.9004 20.1417 37.0773 20.4513 37.1658 20.7608C37.2542 21.1146 37.4311 21.2473 37.7849 21.2031C38.0945 21.1589 38.4041 21.2031 38.7579 21.2031C37.8292 21.8665 37.2542 22.4414 38.1387 23.6355ZM36.1044 13.4195C36.414 13.1541 36.5024 12.5792 36.6793 12.0043C36.7678 12.3139 36.8562 12.4908 36.9447 12.6234C37.1511 13.1836 37.5491 13.4637 38.1387 13.4637C38.3156 13.4637 38.5368 13.4637 38.7137 13.5522C38.5368 13.6848 38.3156 13.9502 38.0503 14.0829C37.6965 14.2598 37.608 14.5251 37.7849 14.9231C37.9176 15.1885 37.9618 15.4981 38.0945 15.9403C37.6965 15.6307 37.4311 15.4981 37.1658 15.3212C36.8562 15.0558 36.6793 15.0558 36.3697 15.3212C36.1044 15.4981 35.839 15.7192 35.441 15.9403C35.5295 15.5865 35.5737 15.4096 35.6179 15.2769C35.9275 14.2598 36.0602 14.5251 35.1757 13.906C35.043 13.8175 34.8661 13.6406 34.645 13.4637C35.2199 13.4637 35.7948 13.6406 36.1044 13.4195ZM36.1486 28.854C36.4582 28.5887 36.5466 28.0137 36.7235 27.4388C36.8562 27.8811 37.0331 28.1906 37.0773 28.456C37.1658 28.8098 37.3427 28.9425 37.6523 28.8982C38.0061 28.854 38.3156 28.8982 38.6694 28.9867C38.4041 29.1636 38.183 29.3847 37.9176 29.5174C37.5638 29.6943 37.4754 29.9596 37.6523 30.3577C37.7849 30.623 37.8292 30.9326 37.8292 31.2864C37.4311 30.9768 37.0331 30.7557 36.6351 30.4461C36.2371 30.7557 35.839 30.9768 35.441 31.2422C35.3968 31.2422 35.3968 31.1979 35.3526 31.1979C35.441 30.8884 35.4852 30.5788 35.6621 30.2692C35.7948 29.9154 35.7506 29.7385 35.3968 29.5174C35.0872 29.3847 34.8661 29.1194 34.5123 28.854C35.2641 28.8982 35.7948 29.0751 36.1486 28.854ZM30.2667 16.9575C31.3281 17.2228 32.0357 16.9575 32.0799 15.7192C32.2126 15.7634 32.2568 15.8076 32.2568 15.8076C32.4337 16.869 33.0086 17.444 34.2469 17.2228C33.0529 17.7535 32.7875 18.4611 33.4067 19.6552C32.5222 18.638 31.6819 18.5496 30.9301 19.5225C30.9301 19.4783 30.8859 19.4341 30.8859 19.3899C30.9743 19.1245 30.9743 18.9034 31.1512 18.6823C31.4166 18.24 31.2397 17.842 30.7532 17.5766C30.5763 17.4882 30.3552 17.2228 30.1783 17.0902C30.2225 17.0017 30.2667 16.9575 30.2667 16.9575ZM30.1783 24.6526C30.5321 24.6969 30.7974 24.6526 31.1512 24.7411C31.5492 24.8295 31.6819 24.6969 31.7704 24.3431C31.8146 24.0335 31.9473 23.7681 32.1242 23.3701C32.2126 23.547 32.3011 23.6355 32.3011 23.6797C32.3895 24.6526 32.9644 25.0507 33.8932 24.8738C33.9374 24.8738 34.0258 24.8738 34.2027 24.918C34.0258 25.0507 33.8932 25.1833 33.7605 25.2276C33.2298 25.5814 33.0676 26.0678 33.274 26.687C33.3182 26.8197 33.3182 26.9966 33.4067 27.2619C33.0529 26.9966 32.876 26.8639 32.6549 26.687C32.2568 26.2447 31.8588 26.2447 31.4608 26.5985C31.3281 26.7312 31.0628 26.8639 30.709 27.0408C31.1512 25.9794 31.1954 25.1391 29.8687 24.5642C30.0898 24.7411 30.134 24.6969 30.1783 24.6526ZM29.4264 28.7213C28.4535 29.0309 28.3208 29.6501 28.8073 30.5788V30.8441C28.365 30.4903 28.0112 30.225 27.569 29.7827C27.171 30.0481 26.7729 30.1808 26.3749 30.4461C26.3307 30.4461 26.3307 30.4019 26.2865 30.4019C26.3749 30.1365 26.3749 29.9154 26.5518 29.6943C26.8172 29.252 26.6403 28.854 26.1538 28.5887C25.9769 28.456 25.7558 28.2349 25.6231 27.9253C25.9769 27.9695 26.2422 27.9695 26.596 28.1022C26.9941 28.1906 27.1267 28.1022 27.2152 27.7484C27.2594 27.4388 27.3921 27.2177 27.5248 26.9081C27.6132 26.9523 27.6574 26.9523 27.6574 26.9523C27.7901 28.058 28.4535 28.6329 29.6918 28.456C29.5591 28.5887 29.5591 28.6771 29.4264 28.7213ZM28.94 21.2031C28.5419 21.5127 28.4093 21.6896 28.5862 22.0876C28.7188 22.3529 28.7631 22.6625 28.94 23.149C28.6304 22.9279 28.4535 22.7952 28.3208 22.6183C27.8786 22.1318 27.4363 21.9991 26.9941 22.4414C26.8614 22.5741 26.6403 22.6625 26.3749 22.7067C26.9941 21.7338 26.7729 20.9377 25.6231 20.2744C25.6673 20.1859 25.7115 20.1417 25.7115 20.1417C26.198 20.1859 26.7287 20.407 27.0825 20.2301C27.3921 20.0975 27.4363 19.4783 27.569 19.0803H27.7017C27.7901 19.3899 27.8786 19.6994 28.0112 20.009C28.0997 20.3628 28.2766 20.5397 28.6304 20.5397C28.94 20.5397 29.2495 20.6282 29.6476 20.7608C29.4264 20.8935 29.2053 21.0704 28.94 21.2031ZM25.5789 12.4465C25.8884 12.4908 26.198 12.4908 26.5076 12.5792C26.9498 12.7119 27.1267 12.535 27.171 12.137C27.2152 11.8274 27.3479 11.6505 27.4805 11.3409C27.569 11.3851 27.6132 11.3851 27.6132 11.3851C27.7459 12.4908 28.4093 13.0657 29.5149 12.9772C29.1169 13.2426 28.5862 13.4195 28.4535 13.7733C28.4093 14.1713 28.7631 14.7462 28.8515 15.1885C28.8073 15.1885 28.7631 15.2327 28.7631 15.2327C27.967 14.3924 27.171 14.0829 26.3307 14.9674C26.9498 13.8617 26.6845 13.1099 25.4904 12.4908C25.5346 12.535 25.5789 12.4908 25.5789 12.4465ZM21.0679 15.3654C21.4217 15.4538 21.6871 15.4538 22.0409 15.5865C22.4389 15.7192 22.5716 15.6307 22.66 15.2769C22.7042 14.9674 22.8369 14.7462 23.058 14.4367C23.1465 14.702 23.2349 14.9231 23.3234 15.1443C23.4118 15.675 23.7214 15.9845 24.2521 15.9845C24.5175 15.9845 24.7386 16.073 25.0482 16.2057C24.7828 16.2941 24.6059 16.5152 24.3848 16.6037C23.9425 16.7806 23.8983 17.0459 24.0752 17.4882C24.1637 17.7535 24.2079 18.0631 24.2079 18.4169C23.9425 18.1958 23.6772 17.9747 23.4561 17.7535C23.1465 17.3997 22.8811 17.3555 22.5716 17.5766C22.3062 17.7093 22.0851 17.842 21.8197 17.9304V17.842C22.3062 16.9575 22.2178 16.1614 20.9795 15.4981C21.0237 15.4538 21.0679 15.4096 21.0679 15.3654ZM21.0237 23.149C21.3775 23.2374 21.6428 23.2374 21.9966 23.3701C22.3947 23.5028 22.5273 23.4143 22.6158 23.0605C22.66 22.751 22.7927 22.5298 22.9254 22.2203C23.0138 22.2645 23.058 22.3087 23.058 22.3087C23.1907 23.4143 23.8541 24.0335 24.9597 23.945V24.0777C24.0752 24.4315 23.5887 25.0064 24.5175 26.289C24.429 26.289 24.3848 26.2005 24.2521 26.2005C24.1637 26.1563 24.0752 26.1121 23.9868 26.0678C23.3234 25.1391 22.66 25.1391 22.0409 25.6698C21.9966 25.714 21.9082 25.6698 21.864 25.714C21.8197 25.714 21.7755 25.714 21.6871 25.6698C22.4389 24.7853 22.1293 23.945 20.9352 23.2374C20.9795 23.2374 21.0237 23.1932 21.0237 23.149ZM16.6012 10.3237C17.0434 10.4122 17.6184 10.6775 17.9722 10.5891C18.2817 10.5006 18.326 9.8815 18.5471 9.5277C18.6355 9.8815 18.8124 10.1911 18.8567 10.5006C18.9451 10.9429 19.1662 11.1198 19.52 11.164C19.8296 11.2082 20.1392 11.3409 20.5372 11.4736C19.3431 11.6505 19.122 12.4023 19.7412 13.6406C18.8567 12.4465 18.0164 12.1812 17.2646 12.9772C17.2646 12.933 17.2203 12.8888 17.2203 12.8446C17.3088 12.6234 17.3088 12.3581 17.4857 12.137C17.751 11.7389 17.5741 11.3851 17.1319 11.0313C16.8665 10.8544 16.6896 10.5891 16.5127 10.4122C16.557 10.3237 16.6012 10.3237 16.6012 10.3237ZM16.557 18.0189C17.5741 18.4169 18.4144 18.5054 18.326 17.0459C18.3702 17.0902 18.4586 17.1786 18.5029 17.2228C18.5913 17.5766 18.7682 17.8862 18.8567 18.24C18.9451 18.638 19.122 18.8149 19.4758 18.8592C19.7854 18.9034 20.095 19.0361 20.493 19.213C20.2276 19.3456 20.0065 19.5225 19.6969 19.5668C19.3874 19.6552 19.2989 19.8763 19.4316 20.2301C19.5643 20.5839 19.6085 20.8493 19.7854 21.38C19.3874 20.982 19.122 20.7608 18.8567 20.4955C18.5471 20.1417 18.3702 20.0975 18.0606 20.2744C17.7953 20.3628 17.5299 20.5397 17.2646 20.6282V20.5397C17.751 19.6994 17.7068 18.9034 16.4685 18.1073C16.557 18.0631 16.557 18.0189 16.557 18.0189ZM16.557 25.7583C17.5741 26.2005 18.3702 26.1563 18.3702 24.8295C18.4144 24.8738 18.4586 24.918 18.5471 24.9622C18.6355 25.316 18.8124 25.6256 18.9009 25.9794C18.9893 26.3774 19.2105 26.5543 19.52 26.5985C19.8296 26.6428 20.1392 26.7754 20.5372 26.9523C20.2719 27.085 20.0507 27.2177 19.7854 27.3061C19.3874 27.3946 19.2547 27.6157 19.4316 28.058C19.5643 28.3675 19.6085 28.6771 19.7412 29.1636C19.2105 28.6771 18.8124 28.2791 18.4144 27.9253C18.0164 28.058 17.6184 28.2349 17.0877 28.456C17.1761 28.058 17.2203 27.7484 17.3972 27.5715C17.6626 27.2177 17.4857 26.8639 17.0434 26.5101C16.7781 26.289 16.6012 26.0236 16.4243 25.8467C16.5127 25.8025 16.5127 25.7583 16.557 25.7583Z" fill="white"/>
<path d="M133.399 74.5827V72.5042C91.0318 57.9542 57.5093 86.5677 14.6995 72.9906C14.6111 72.9464 14.5668 72.9464 14.4342 72.9022V72.5484C14.1246 72.5484 13.7708 72.5042 13.417 72.4157V79.0052C53.3964 93.8206 93.4199 64.2341 133.399 79.0052C133.444 77.5458 133.399 76.0864 133.399 74.5827Z" fill="white"/>
</g>
<path d="M10.1544 103.55C9.6984 105.35 8.2104 106.442 6.0984 106.442C3.5664 106.442 1.7544 104.678 1.7544 102.014C1.7544 99.3741 3.5784 97.5621 6.1224 97.5621C8.2704 97.5621 9.6264 98.6421 10.1664 100.454H8.4264C7.9824 99.4701 7.1904 99.0621 6.1224 99.0621C4.6104 99.0621 3.5184 100.286 3.5184 102.014C3.5184 103.706 4.6224 104.942 6.1224 104.942C7.3704 104.942 8.0664 104.438 8.4144 103.55H10.1544ZM15.5828 97.5141C18.4508 97.5141 20.0828 99.6141 20.0828 102.002C20.0828 104.39 18.4508 106.49 15.5828 106.49C12.7148 106.49 11.0708 104.39 11.0708 102.002C11.0708 99.6141 12.7148 97.5141 15.5828 97.5141ZM15.5828 104.99C17.2868 104.99 18.3188 103.646 18.3188 102.002C18.3188 100.358 17.2868 99.0141 15.5828 99.0141C13.8548 99.0141 12.8348 100.358 12.8348 102.002C12.8348 103.646 13.8548 104.99 15.5828 104.99ZM21.3237 106.286V97.7181H23.9157L25.9437 104.162H25.9557L27.9237 97.7181H30.4917V106.286H28.8477V99.8901H28.7997L26.7837 106.286H25.0437L23.0157 99.8901H22.9797V106.286H21.3237ZM35.3907 97.7181C37.4067 97.7181 38.6067 98.8821 38.6067 100.418C38.6067 102.026 37.1907 103.25 35.3787 103.25H33.9627V106.286H32.1987V97.7181H35.3907ZM35.2587 101.798C36.1707 101.798 36.8547 101.366 36.8547 100.454C36.8547 99.5421 36.1827 99.1821 35.2707 99.1821H33.9627V101.798H35.2587ZM43.8601 97.5141C46.7281 97.5141 48.3601 99.6141 48.3601 102.002C48.3601 104.39 46.7281 106.49 43.8601 106.49C40.9921 106.49 39.3481 104.39 39.3481 102.002C39.3481 99.6141 40.9921 97.5141 43.8601 97.5141ZM43.8601 104.99C45.5641 104.99 46.5961 103.646 46.5961 102.002C46.5961 100.358 45.5641 99.0141 43.8601 99.0141C42.1321 99.0141 41.1121 100.358 41.1121 102.002C41.1121 103.646 42.1321 104.99 43.8601 104.99ZM56.5485 102.782C56.5485 104.87 55.6005 106.49 53.1165 106.49C50.5845 106.49 49.5765 104.966 49.5765 102.782V97.7181H51.3405V102.782C51.3405 104.054 51.8565 104.978 53.1165 104.978C54.3165 104.978 54.7845 104.054 54.7845 102.782V97.7181H56.5485V102.782ZM58.2026 97.7181H60.5786L62.9426 102.242C63.3266 103.022 63.6386 103.682 63.8546 104.126C63.8306 103.43 63.8186 102.662 63.8186 101.798V97.7181H65.5346V106.286H63.1946L61.0826 102.326C60.6026 101.294 60.1226 100.442 59.8946 99.9261C59.9306 100.598 59.9186 101.63 59.9186 102.458V106.286H58.2026V97.7181ZM69.9257 97.7181C72.9137 97.7181 74.5457 99.3021 74.5457 101.906C74.5457 104.606 72.9137 106.286 69.9377 106.286H67.2377V97.7181H69.9257ZM69.9257 104.786C71.6537 104.786 72.7457 103.838 72.7457 101.906C72.7457 100.094 71.6537 99.2181 69.9377 99.2181H69.0017V104.786H69.9257ZM77.5564 104.786H81.4684V106.286H75.7924V97.7181H81.4324V99.2181H77.5564V101.234H81.1804V102.698H77.5564V104.786ZM85.6523 97.7181C88.6403 97.7181 90.2723 99.3021 90.2723 101.906C90.2723 104.606 88.6403 106.286 85.6643 106.286H82.9643V97.7181H85.6523ZM85.6523 104.786C87.3803 104.786 88.4723 103.838 88.4723 101.906C88.4723 100.094 87.3803 99.2181 85.6643 99.2181H84.7283V104.786H85.6523ZM94.2377 106.286V97.7181H97.2497C99.0737 97.7181 100.286 98.4141 100.286 99.9741C100.286 100.958 99.8057 101.558 98.8337 101.894V101.918C99.7337 102.11 100.574 102.626 100.574 103.838C100.574 105.674 99.2297 106.286 97.1897 106.286H94.2377ZM96.0017 101.246H96.9617C98.0057 101.246 98.5457 100.994 98.5457 100.154C98.5457 99.3141 97.9937 99.1461 97.0817 99.1461H96.0017V101.246ZM96.0017 104.846H96.9977C98.1137 104.846 98.8217 104.642 98.8217 103.718C98.8217 102.878 98.1857 102.638 97.2617 102.638H96.0017V104.846ZM100.842 97.7181H102.834C103.434 98.9421 104.058 100.166 104.61 101.342C105.198 100.166 105.606 99.2901 106.362 97.7181H108.306L105.438 103.01V106.286H103.674V103.01L100.842 97.7181ZM118.857 102.782C118.857 104.87 117.909 106.49 115.425 106.49C112.893 106.49 111.885 104.966 111.885 102.782V97.7181H113.649V102.782C113.649 104.054 114.165 104.978 115.425 104.978C116.625 104.978 117.093 104.054 117.093 102.782V97.7181H118.857V102.782ZM120.225 104.654H121.917V106.286H120.225V104.654ZM124.785 103.49C124.857 104.462 125.565 105.026 126.525 105.026C127.437 105.026 127.965 104.666 127.965 103.934C127.965 103.118 127.257 102.914 126.165 102.578C124.749 102.158 123.345 101.654 123.345 99.9141C123.333 98.2821 124.893 97.5141 126.465 97.5141C128.181 97.5141 129.465 98.2941 129.657 100.262H127.893C127.737 99.3741 127.281 98.9661 126.417 98.9661C125.673 98.9661 125.085 99.2661 125.085 99.9741C125.085 100.634 125.733 100.946 126.825 101.27C128.289 101.702 129.705 102.122 129.705 103.946C129.705 105.698 128.133 106.49 126.525 106.49C124.653 106.49 123.165 105.542 122.973 103.49H124.785ZM130.925 104.654H132.617V106.286H130.925V104.654ZM140.1 106.286L139.368 104.138H136.176L135.432 106.286H133.596L136.68 97.7181H138.9L141.96 106.286H140.1ZM137.748 99.3381L136.644 102.734H138.888L137.784 99.3381H137.748ZM143.124 104.654H144.816V106.286H143.124V104.654ZM5.43338 123.786H9.34538V125.286H3.66938V116.718H5.43338V123.786ZM10.3959 116.718H12.1599V125.286H10.3959V116.718ZM21.7853 122.55C21.3293 124.35 19.8413 125.442 17.7293 125.442C15.1973 125.442 13.3853 123.678 13.3853 121.014C13.3853 118.374 15.2093 116.562 17.7533 116.562C19.9013 116.562 21.2573 117.642 21.7973 119.454H20.0573C19.6133 118.47 18.8213 118.062 17.7533 118.062C16.2413 118.062 15.1493 119.286 15.1493 121.014C15.1493 122.706 16.2533 123.942 17.7533 123.942C19.0013 123.942 19.6973 123.438 20.0453 122.55H21.7853ZM24.9685 123.786H28.8805V125.286H23.2045V116.718H28.8445V118.218H24.9685V120.234H28.5925V121.698H24.9685V123.786ZM30.3764 116.718H32.7524L35.1164 121.242C35.5004 122.022 35.8124 122.682 36.0284 123.126C36.0044 122.43 35.9924 121.662 35.9924 120.798V116.718H37.7084V125.286H35.3684L33.2564 121.326C32.7764 120.294 32.2964 119.442 32.0684 118.926C32.1044 119.598 32.0924 120.63 32.0924 121.458V125.286H30.3764V116.718ZM40.7676 122.49C40.8396 123.462 41.5476 124.026 42.5076 124.026C43.4196 124.026 43.9476 123.666 43.9476 122.934C43.9476 122.118 43.2396 121.914 42.1476 121.578C40.7316 121.158 39.3276 120.654 39.3276 118.914C39.3156 117.282 40.8756 116.514 42.4476 116.514C44.1636 116.514 45.4476 117.294 45.6396 119.262H43.8756C43.7196 118.374 43.2636 117.966 42.3996 117.966C41.6556 117.966 41.0676 118.266 41.0676 118.974C41.0676 119.634 41.7156 119.946 42.8076 120.27C44.2716 120.702 45.6876 121.122 45.6876 122.946C45.6876 124.698 44.1156 125.49 42.5076 125.49C40.6356 125.49 39.1476 124.542 38.9556 122.49H40.7676ZM48.8279 123.786H52.7399V125.286H47.0639V116.718H52.7039V118.218H48.8279V120.234H52.4519V121.698H48.8279V123.786ZM56.9238 116.718C59.9118 116.718 61.5438 118.302 61.5438 120.906C61.5438 123.606 59.9118 125.286 56.9358 125.286H54.2358V116.718H56.9238ZM56.9238 123.786C58.6518 123.786 59.7438 122.838 59.7438 120.906C59.7438 119.094 58.6518 118.218 56.9358 118.218H55.9998V123.786H56.9238ZM68.7012 116.718C70.7172 116.718 71.9172 117.882 71.9172 119.418C71.9172 121.026 70.5012 122.25 68.6892 122.25H67.2732V125.286H65.5092V116.718H68.7012ZM68.5692 120.798C69.4812 120.798 70.1652 120.366 70.1652 119.454C70.1652 118.542 69.4932 118.182 68.5812 118.182H67.2732V120.798H68.5692ZM78.1821 116.718H79.9461V125.286H78.1821V121.734H74.7381V125.286H72.9741V116.718H74.7381V120.246H78.1821V116.718ZM87.4179 125.286L86.6859 123.138H83.4939L82.7499 125.286H80.9139L83.9979 116.718H86.2179L89.2779 125.286H87.4179ZM85.0659 118.338L83.9619 121.734H86.2059L85.1019 118.338H85.0659ZM90.2475 125.274V116.718H93.6195C95.5875 116.718 96.7635 117.69 96.7635 119.154C96.7635 120.438 95.9955 121.182 95.0955 121.434C95.8755 121.674 96.1755 122.322 96.4515 123.222C96.6915 123.99 96.8715 124.686 97.1715 125.226V125.286H95.3835C95.1195 124.806 94.9155 124.074 94.6515 123.342C94.3755 122.55 93.9795 122.058 92.9235 122.058H92.0115V125.274H90.2475ZM92.0115 120.642H93.5235C94.4715 120.642 95.0355 120.138 95.0355 119.37C95.0355 118.638 94.4955 118.134 93.4995 118.134H92.0115V120.642ZM98.2983 125.286V116.718H100.89L102.918 123.162H102.93L104.898 116.718H107.466V125.286H105.822V118.89H105.774L103.758 125.286H102.018L99.9903 118.89H99.9543V125.286H98.2983ZM114.945 125.286L114.213 123.138H111.021L110.277 125.286H108.441L111.525 116.718H113.745L116.805 125.286H114.945ZM112.593 118.338L111.489 121.734H113.733L112.629 118.338H112.593ZM125.426 122.55C124.97 124.35 123.482 125.442 121.37 125.442C118.838 125.442 117.026 123.678 117.026 121.014C117.026 118.374 118.85 116.562 121.394 116.562C123.542 116.562 124.898 117.642 125.438 119.454H123.698C123.254 118.47 122.462 118.062 121.394 118.062C119.882 118.062 118.79 119.286 118.79 121.014C118.79 122.706 119.894 123.942 121.394 123.942C122.642 123.942 123.338 123.438 123.686 122.55H125.426ZM126.822 116.718H128.586V125.286H126.822V116.718ZM132.054 123.786H135.966V125.286H130.29V116.718H135.93V118.218H132.054V120.234H135.678V121.698H132.054V123.786ZM138.666 122.49C138.738 123.462 139.446 124.026 140.406 124.026C141.318 124.026 141.846 123.666 141.846 122.934C141.846 122.118 141.138 121.914 140.046 121.578C138.63 121.158 137.226 120.654 137.226 118.914C137.214 117.282 138.774 116.514 140.346 116.514C142.062 116.514 143.346 117.294 143.538 119.262H141.774C141.618 118.374 141.162 117.966 140.298 117.966C139.554 117.966 138.966 118.266 138.966 118.974C138.966 119.634 139.614 119.946 140.706 120.27C142.17 120.702 143.586 121.122 143.586 122.946C143.586 124.698 142.014 125.49 140.406 125.49C138.534 125.49 137.046 124.542 136.854 122.49H138.666Z" fill="white"/>
<defs>
<clipPath id="clip0_146_742">
<rect width="120" height="82.5724" fill="white" transform="translate(13.417 0.713745)"/>
</clipPath>
</defs>
</svg>
