<svg width="151" height="26" viewBox="0 0 151 26" fill="none" xmlns="http://www.w3.org/2000/svg">
<g clip-path="url(#clip0_162_460)">
<path fill-rule="evenodd" clip-rule="evenodd" d="M20.5289 24.2521H13.4008V12.9421C13.4008 11.7551 12.5486 10.9942 11.5504 10.9942C10.5764 10.9942 9.40159 11.7856 9.40159 12.9421V24.2521H3.00395V6.23408L0.94043 4.77314C3.30221 3.98183 7.25281 2.27745 9.40159 1.08435V10.5316C10.2599 9.46637 12.3478 8.09674 14.9957 8.09674C18.3558 8.09674 19.7984 10.3185 19.7984 12.9725V22.5172C19.7984 22.8097 20.0419 23.3816 20.5289 24.2521ZM93.9949 24.2521H86.8668V12.9421C86.8668 11.7551 86.0147 10.9942 85.0164 10.9942C84.0424 10.9942 82.8676 11.7856 82.8676 12.9421V24.2521H76.47V6.23408L74.4064 4.77314C76.7682 3.98183 80.7188 2.27745 82.8676 1.08435V10.5316C83.7198 9.46637 85.8077 8.09674 88.4617 8.09674C91.8218 8.09674 93.2645 10.3185 93.2645 12.9725V22.5172C93.2645 22.8097 93.5079 23.3816 93.9949 24.2521ZM36.1121 21.5615V22.6877C34.6938 23.9112 33.1232 24.9156 29.7571 24.9156C24.4368 24.9156 21.1863 21.3485 21.1863 16.9536C21.1863 11.7125 24.5282 8.1394 29.4283 8.1394C34.2798 8.1394 36.1121 11.463 36.1121 15.6448H27.2492C27.6326 20.4598 30.3171 22.6572 32.7702 22.6572C33.9511 22.6572 35.2842 22.2615 36.1121 21.5615ZM29.1301 14.6952C30.5545 14.6952 30.7188 14.2875 30.7188 13.0943C30.7188 12.1812 30.5545 9.929 29.1301 9.929C27.7057 9.929 27.5413 12.1812 27.5413 13.0943C27.5413 14.2874 27.7056 14.6952 29.1301 14.6952ZM149.881 21.5555V22.6816C148.463 23.9052 146.892 24.9095 143.526 24.9095C138.206 24.9095 134.955 21.3424 134.955 16.9536C134.955 11.7064 138.297 8.1394 143.204 8.1394C148.049 8.1394 149.881 11.463 149.881 15.6388H141.018C141.402 20.4598 144.086 22.6512 146.539 22.6512C147.72 22.6512 149.053 22.2554 149.881 21.5555ZM142.899 14.6891C144.324 14.6891 144.488 14.2877 144.488 13.0943C144.488 12.1812 144.324 9.92287 142.899 9.92287C141.475 9.92287 141.31 12.1812 141.31 13.0943C141.31 14.2874 141.475 14.6891 142.899 14.6891ZM54.1848 21.4215L54.8971 21.5735C54.5746 22.8823 53.6309 24.9153 50.5934 24.9153C48.0612 24.9153 47.349 23.3571 46.8194 21.7135C46.375 23.2353 44.6402 24.9153 41.3409 24.9153C38.3947 24.9153 36.7756 23.6066 36.7756 21.1352C36.7756 18.3899 39.4539 16.375 46.1437 14.3906V11.4993C46.1437 10.0019 45.3463 9.48442 44.4637 9.48442C43.6662 9.48442 42.4001 10.3366 42.4001 11.6819C42.4001 12.321 42.5215 12.808 42.6072 13.4472C42.6072 14.2689 41.6637 15.5229 40.2211 15.5229C38.6323 15.5229 37.8653 14.3663 37.8653 13.021C37.8653 10.8235 39.8985 8.13913 45.2308 8.13913C50.7701 8.13913 52.5354 11.067 52.5354 13.8732V21.3179C52.5354 21.7744 52.7179 22.231 53.2172 22.231C53.6554 22.231 53.9596 21.9816 54.1848 21.4215ZM46.1742 20.8616V15.3344C43.9341 16.2414 43.161 18.4936 43.161 20.2224C43.161 21.6163 43.593 22.2555 44.628 22.2555C45.5289 22.2555 46.1742 21.6772 46.1742 20.8616ZM63.346 24.2521H55.9927V6.23408L54.0327 4.77314C56.2727 3.98183 60.3877 2.27745 62.433 1.08435V22.5172C62.433 22.7911 62.7373 23.3695 63.346 24.2521ZM103.667 24.2521H96.308V6.23408L94.348 4.77314C96.588 3.98183 100.709 2.27745 102.754 1.08435V22.5172C102.754 22.7911 103.059 23.3695 103.667 24.2521ZM74.382 22.3834V23.5095C73.3107 24.4286 71.5332 24.9156 69.6158 24.9156C66.4505 24.9156 65.3548 22.5659 65.3548 20.5815V9.98373H63.8269L71.8437 2.94701V8.74805H74.382V9.98373H71.8437V21.4703C71.8437 22.3834 72.3794 22.8094 73.0246 22.8094C73.4204 22.8094 74.1264 22.6272 74.382 22.3834ZM109.785 7.88981C107.965 7.88981 106.51 6.38012 106.51 4.48701C106.51 2.59391 107.965 1.08435 109.785 1.08435C111.605 1.08435 113.054 2.59391 113.054 4.48701C113.054 6.38012 111.605 7.88981 109.785 7.88981ZM114.089 24.2521H106.577V12.9056L104.514 11.4386C106.875 10.6473 110.838 8.93679 112.993 7.74369V22.5172C112.993 22.8035 113.358 23.3816 114.089 24.2521ZM134.475 24.2521H127.115V12.9056C127.115 11.7186 126.269 10.9516 125.265 10.9516C124.291 10.9516 123.116 11.749 123.116 12.9056V24.2521H116.718V12.9056L114.661 11.4386C117.017 10.6473 120.797 8.93679 122.952 7.74369V10.8603C124.011 9.45415 126.062 8.04807 128.71 8.04807C132.07 8.04807 133.513 10.282 133.513 12.936V22.5172C133.513 22.7973 133.835 23.3756 134.475 24.2521Z" fill="#BFBFBF"/>
</g>
<defs>
<clipPath id="clip0_162_460">
<rect width="150.11" height="25" fill="white" transform="translate(0.356445 0.5)"/>
</clipPath>
</defs>
</svg>
