<svg width="83" height="26" viewBox="0 0 83 26" fill="none" xmlns="http://www.w3.org/2000/svg">
<g clip-path="url(#clip0_162_463)">
<path d="M13.2727 0.5C6.39159 0.5 0.919922 6.11822 0.919922 12.9618C0.919922 19.8804 6.39159 25.5 13.2727 25.5C20.1901 25.5 25.5884 19.8814 25.5884 12.964C25.5895 6.1204 20.1901 0.5 13.2727 0.5ZM13.2727 5.78968C18.8912 5.78968 23.0071 9.35773 24.7464 12.964C23.0071 16.6253 18.8912 20.2103 13.2727 20.2103C7.61789 20.2103 3.53494 16.6242 1.79681 12.964C3.53494 9.3589 7.61906 5.79186 13.2727 5.79186V5.78968ZM13.2727 6.35682C9.61253 6.35682 6.62841 9.31924 6.62841 12.9618C6.62841 16.6595 9.61253 19.6061 13.2727 19.6061C16.9328 19.6061 19.8777 16.6593 19.8777 12.964C19.8777 9.32142 16.9328 6.35682 13.2727 6.35682Z" fill="#BFBFBF"/>
<path d="M37.3978 1.98328C30.9372 1.98328 26.4346 6.88757 26.4346 12.8527V12.9247C26.4346 18.9637 31.029 23.7418 37.2342 23.7418C41.2786 23.7418 43.695 22.2953 45.8548 19.9704L42.9078 17.0081C41.2599 18.5073 39.7758 19.4796 37.3782 19.4796C33.7731 19.4796 31.2662 16.4567 31.2662 12.8527V12.7982C31.2662 9.19311 33.8281 6.24556 37.3782 6.24556C39.4829 6.24556 41.1303 7.14257 42.7595 8.62537L45.7064 5.22034C43.7481 3.29949 41.3695 1.98328 37.3978 1.98328Z" fill="#BFBFBF"/>
<path d="M47.5977 2.34753V23.3732H57.6077C62.3466 23.3732 65.4757 21.454 65.4757 17.6123V17.5382C65.4757 14.7202 63.9768 13.3095 61.5406 12.3772C63.0421 11.5362 64.3043 10.2189 64.3043 7.84007V7.78554C64.3043 6.33788 63.8279 5.16708 62.8581 4.19729C61.6517 3.00847 59.7665 2.34753 57.3677 2.34753H47.5977ZM52.0977 6.39168H56.6741C58.6324 6.39168 59.7105 7.17848 59.7105 8.55118V8.62535C59.7105 10.1808 58.4118 10.8394 56.3622 10.8394L52.0977 10.8416V6.39168ZM52.0977 14.685H57.4615C59.8204 14.685 60.8818 15.5642 60.8818 16.9732V17.0452C60.8818 18.6006 59.6386 19.3138 57.6077 19.3138L52.0977 19.3159V14.685Z" fill="#BFBFBF"/>
<path d="M74.5482 2.03784C70.2661 2.03784 67.1928 4.5625 67.1928 8.38546V8.44217C67.1928 12.6165 69.9361 13.7884 74.1643 14.8683C77.678 15.7819 78.4091 16.367 78.4091 17.5382V17.6124C78.4091 18.8375 77.2551 19.5887 75.3705 19.5887C72.9542 19.5887 70.9784 18.5985 69.0927 17.0431L66.3486 20.3194C68.8738 22.5705 72.0943 23.6699 75.2789 23.6699V23.6677C79.8175 23.6677 83.0008 21.324 83.0008 17.1543V17.0998C83.0008 13.4221 80.5861 11.8999 76.3216 10.7849C72.6989 9.85024 71.7823 9.39388 71.7823 8.02118V7.96664C71.7823 6.9418 72.7159 6.11907 74.4915 6.11907C76.2671 6.11907 78.0974 6.90448 79.9644 8.20223L82.3616 4.70995C80.2382 3.00812 77.6227 2.03784 74.5482 2.03784Z" fill="#BFBFBF"/>
</g>
<defs>
<clipPath id="clip0_162_463">
<rect width="82.0805" height="25" fill="white" transform="translate(0.919922 0.5)"/>
</clipPath>
</defs>
</svg>
