<svg width="99" height="26" viewBox="0 0 99 26" fill="none" xmlns="http://www.w3.org/2000/svg">
<g clip-path="url(#clip0_162_454)">
<path fill-rule="evenodd" clip-rule="evenodd" d="M45.9023 24.7167H51.7843V1.25195H45.9023V24.7167Z" fill="#BFBFBF"/>
<path fill-rule="evenodd" clip-rule="evenodd" d="M66.3896 19.775C70.1274 19.775 72.8734 16.5725 72.8734 12.9775C72.8734 9.38215 70.112 6.21006 66.3896 6.21006C62.6519 6.21006 59.8906 9.38215 59.8906 12.9775C59.8906 16.5725 62.6519 19.775 66.3896 19.775ZM66.4354 0.5C73.4836 0.5 79.159 5.90791 79.159 12.9321C79.159 19.9865 73.438 25.5 66.3743 25.5C59.3108 25.5 53.5898 20.0621 53.5898 13.0228C53.5898 5.99843 59.3873 0.5 66.4354 0.5ZM79.8355 17.6206L85.2325 16.3509C85.6201 19.1704 87.6923 20.1891 89.8689 20.1891C92.0308 20.1891 92.821 18.9195 92.821 17.9305C92.821 17.1333 92.3587 16.3509 90.7784 16.041L87.4835 15.4062C83.5477 14.6534 80.7599 12.2029 80.7599 8.43859C80.7599 3.9511 84.8894 0.792055 89.5559 0.792055C95.5641 0.792055 98.0388 4.51207 98.4713 7.62686L93.1787 9.10298C92.8955 7.18389 91.7028 5.79643 89.5261 5.79643C87.6475 5.79643 86.7531 7.03639 86.7531 7.98103C86.7531 8.76341 87.1258 9.66395 88.5272 9.92961L91.9562 10.5791C96.4436 11.4354 98.9037 14.1515 98.9037 17.6796C98.9037 21.5177 95.5641 25.2081 89.8392 25.2081C83.8459 25.2081 80.6257 22.0933 79.8355 17.6206Z" fill="#BFBFBF"/>
<path fill-rule="evenodd" clip-rule="evenodd" d="M6.60852 24.7167H0.27832L10.7457 1.25195H17.1062L6.60852 24.7167Z" fill="#BFBFBF"/>
<path fill-rule="evenodd" clip-rule="evenodd" d="M28.8746 1.23755H21.5834L29.5485 12.7185L25.1165 19.1527L17.1316 1.25137H10.7705L21.2688 24.7168H28.0578L33.017 17.2783L37.9177 24.7168H44.781L36.5889 12.7185L44.4513 1.23755H37.2576L33.017 8.18773L28.8746 1.23755Z" fill="#BFBFBF"/>
</g>
<defs>
<clipPath id="clip0_162_454">
<rect width="98.6253" height="25" fill="white" transform="translate(0.27832 0.5)"/>
</clipPath>
</defs>
</svg>
