<svg width="167" height="26" viewBox="0 0 167 26" fill="none" xmlns="http://www.w3.org/2000/svg">
<g clip-path="url(#clip0_162_435)">
<path d="M25.0014 13C25.0014 19.9036 19.405 25.5 12.5 25.5C5.59643 25.5 0 19.9036 0 13C0 6.09643 5.59643 0.5 12.5 0.5C19.405 0.5 25.0014 6.09643 25.0014 13Z" fill="#BFBFBF"/>
<path d="M36.6834 18.3649C34.7157 18.3649 33.6176 17.1608 33.6176 15.0371V4.25671H28.7402V15.0092C28.7402 19.7305 31.6221 22.4284 36.6834 22.4284C41.7447 22.4284 44.6265 19.7305 44.6265 15.0092V4.25671H39.7492V15.0371C39.7492 17.1608 38.6511 18.3649 36.6834 18.3649Z" fill="#BFBFBF"/>
<path d="M53.2355 22.4283C57.5109 22.4283 60.3146 20.1485 60.3146 16.765C60.3146 14.3514 58.8709 12.4897 55.0415 11.4417L53.7037 11.0738C51.7918 10.5498 51.0839 9.97571 51.0839 9.13402C51.0839 8.24215 51.8698 7.74606 53.2578 7.74606C54.9412 7.74606 56.7472 8.68809 58.007 9.7639L60.4428 6.69812C58.5309 4.96456 55.9612 3.91663 53.2355 3.91663C49.1162 3.91663 46.2344 6.14628 46.2344 9.57996C46.2344 12.2277 47.9624 13.9612 51.1619 14.7973L52.2656 15.0872C54.6513 15.7171 55.4651 16.1909 55.4651 17.1329C55.4651 18.1028 54.6235 18.5989 53.2076 18.5989C51.1117 18.5989 49.3782 17.8408 47.9624 16.5811L45.6045 19.5465C47.5722 21.3804 50.3258 22.4283 53.2355 22.4283Z" fill="#BFBFBF"/>
<path d="M74.2342 22.0884H79.1952L72.6623 4.25671H66.999L60.4717 22.0884H65.2933L66.4249 18.7606H73.1082L74.2342 22.0884ZM67.6567 15.1374L69.7805 8.89997L71.8764 15.1374H67.6567Z" fill="#BFBFBF"/>
<path d="M88.604 22.0884H93.4814V8.19205H98.7824V4.25671H83.3086V8.19205H88.604V22.0884Z" fill="#BFBFBF"/>
<path d="M107.919 22.4283C113.264 22.4283 117.172 18.6268 117.172 13.1976C117.172 7.77393 113.264 3.91663 107.919 3.91663C102.568 3.91663 98.6602 7.77393 98.6602 13.1976C98.6602 18.6268 102.568 22.4283 107.919 22.4283ZM107.919 18.3927C105.377 18.3927 103.616 16.2912 103.616 13.1976C103.616 10.1039 105.377 7.95788 107.919 7.95788C110.461 7.95788 112.216 10.1039 112.216 13.1976C112.216 16.2912 110.461 18.3927 107.919 18.3927Z" fill="#BFBFBF"/>
<path d="M118.858 22.0884H125.882C131.155 22.0884 134.906 18.415 134.906 13.1753C134.906 7.93006 131.155 4.25671 125.882 4.25671H118.858V22.0884ZM123.658 18.2366V8.11401H125.882C128.451 8.11401 130.029 10.1319 130.029 13.1753C130.029 16.2132 128.451 18.2366 125.882 18.2366H123.658Z" fill="#BFBFBF"/>
<path d="M147.768 22.0884H152.729L146.196 4.25671H140.533L134.006 22.0884H138.827L139.959 18.7606H146.642L147.768 22.0884ZM141.191 15.1374L143.315 8.89997L145.411 15.1374H141.191Z" fill="#BFBFBF"/>
<path d="M160.673 15.667L166.988 4.25671H161.487L158.209 11.3359L154.904 4.25671H149.396L155.718 15.667V22.0884H160.673V15.667Z" fill="#BFBFBF"/>
</g>
<defs>
<clipPath id="clip0_162_435">
<rect width="166.989" height="25" fill="white" transform="translate(0 0.5)"/>
</clipPath>
</defs>
</svg>
