<svg width="78" height="153" viewBox="0 0 78 153" fill="none" xmlns="http://www.w3.org/2000/svg">
<path fill-rule="evenodd" clip-rule="evenodd" d="M36.1901 39.8107C45.4947 47.0344 56.1 52.0824 67.208 54.5374C68.0042 54.7138 68.5021 54.7827 68.8135 54.7963C68.7079 54.0579 68.229 52.7276 67.2772 51.5566C59.9808 42.5797 47.6124 38.2285 36.1901 39.8107ZM30.1555 85.7821C37.6576 93.7283 47.4648 99.5223 58.1638 101.883C61.2342 102.561 64.9908 102.1 66.538 100.853C66.9654 100.509 67.0438 100.256 67.0424 99.8851C67.041 99.1981 66.4478 98.1512 65.2809 96.7665C56.9588 86.9265 42.6089 82.5615 30.1555 85.7821ZM75.6692 100.989C75.3883 103.586 74.1057 105.909 71.9863 107.615C67.8044 110.983 61.0906 111.425 56.2922 110.365C42.8804 107.405 30.6762 99.7921 21.7559 89.396C17.8802 91.8949 15.0806 95.2071 13.9165 98.8215C12.555 103.051 12.4924 110.295 19.934 120.756C27.3129 131.131 37.3043 139.477 48.8273 144.89L45.1364 152.749C32.2623 146.703 21.0993 137.383 12.8558 125.792C7.5972 118.394 2.0792 107.253 5.64946 96.1574C7.39869 90.7261 11.2249 85.9556 16.5381 82.4139C13.783 78.1499 11.5389 73.5551 9.91321 68.7314C7.23061 60.7649 7.04688 53.856 9.36239 48.2001C11.5908 42.7604 15.8476 39.0292 19.7934 36.5881C11.0489 27.1437 4.31748 15.8363 0.445927 3.44934L8.73608 0.856436C12.4258 12.6672 19.1249 23.6201 28.2042 32.7447C35.1311 30.5408 42.7845 30.2055 50.2866 31.8342C59.8089 33.9071 68.2366 38.9653 74.0173 46.0835C76.0791 48.618 78.0492 52.7418 77.3885 56.6714C76.9971 59.0107 75.695 60.9757 73.7223 62.2064C70.5621 64.1759 67.0313 63.3928 65.3339 63.0187C50.7803 59.7999 37.323 52.7037 26.2551 42.9076C23.0822 44.5349 19.1145 47.3046 17.3996 51.4912C15.8978 55.1593 16.1477 60.0247 18.1443 65.9566C19.6416 70.4004 21.7439 74.6138 24.3444 78.5001C32.2982 75.6101 41.4119 75.2772 50.0193 77.557C58.6559 79.845 66.4312 84.6771 71.9124 91.1613C73.5456 93.0928 75.7182 96.0955 75.7279 99.867C75.7288 100.243 75.7095 100.617 75.6692 100.989Z" fill="#FF5C9E"/>
</svg>
