<svg width="100" height="100" viewBox="0 0 100 100" fill="none" xmlns="http://www.w3.org/2000/svg">
<g clip-path="url(#clip0_162_484)">
<path d="M18.0726 81.6847L26.0351 66.1194L42.7184 57.2916L50.0101 65.1666L57.3017 57.2916C57.3017 57.2916 72.4684 62.775 75.0642 67.2666C76.9017 70.4361 80.3726 77.7277 82.2587 81.743C82.8615 83.0361 81.9184 84.5138 80.499 84.5138H19.8031C18.3545 84.5138 17.4115 82.9777 18.0726 81.6847Z" fill="#FFE780"/>
<path d="M84.8449 82.8903L77.8352 68.8708C76.5713 66.3431 74.4907 64.2625 71.963 62.9986L58.7505 56.3875V49.9708C62.2894 47.3069 64.5838 43.0875 64.5838 38.3333V29.5833C64.5838 21.5431 58.0407 15 50.0005 15C41.9602 15 35.4171 21.5431 35.4171 29.5833V38.3333C35.4171 43.0875 37.7116 47.3069 41.2505 49.9708V56.3875L28.038 62.9986C25.5102 64.2625 23.4296 66.3431 22.1657 68.8708L15.156 82.8903C14.7963 83.6097 15.088 84.4847 15.8074 84.8444C16.0213 84.9514 16.2352 85 16.4588 85C16.9935 85 17.5088 84.7083 17.7616 84.1931L24.7713 70.1736C25.7532 68.2097 27.3769 66.5861 29.3407 65.6042L35.4171 62.5611V67.6847C32.9088 68.3361 31.0421 70.6111 31.0421 73.3236C31.0421 76.5417 33.6574 79.1569 36.8755 79.1569C40.0935 79.1569 42.7088 76.5417 42.7088 73.3236C42.7088 70.6111 40.8421 68.3361 38.3338 67.6847V61.1028L42.3782 59.0806L48.9213 66.1583C49.1935 66.4597 49.5824 66.625 49.9907 66.625C50.3991 66.625 50.788 66.4597 51.0602 66.1583L57.6032 59.0806L61.6477 61.1028V67.5778C59.2074 67.9861 57.2824 69.9208 56.8741 72.3611C56.8255 72.5069 56.7866 72.6722 56.7866 72.8375V80.6153C56.7866 81.9569 57.8755 83.0458 59.2171 83.0458H60.1894C60.9963 83.0458 61.6477 82.3944 61.6477 81.5875C61.6477 80.7806 60.9963 80.1292 60.1894 80.1292H59.7032V73.3236C59.7032 71.7194 61.0157 70.4069 62.6199 70.4069C64.2241 70.4069 65.5366 71.7194 65.5366 73.3236V80.1292H65.0505C64.2435 80.1292 63.5921 80.7806 63.5921 81.5875C63.5921 82.3944 64.2435 83.0458 65.0505 83.0458H66.0227C67.3644 83.0458 68.4532 81.9569 68.4532 80.6153V72.8375C68.4532 72.6722 68.4144 72.5069 68.3657 72.3611C68.0157 70.2514 66.5282 68.5306 64.5644 67.8306V62.5611L70.6407 65.6042C72.6046 66.5861 74.2282 68.2097 75.2102 70.1736L82.2199 84.1931C82.4727 84.7083 82.988 85 83.5227 85C83.7463 85 83.9602 84.9514 84.1741 84.8444C84.8935 84.4847 85.1852 83.6097 84.8255 82.8903H84.8449ZM39.7921 73.3333C39.7921 74.9375 38.4796 76.25 36.8755 76.25C35.2713 76.25 33.9588 74.9375 33.9588 73.3333C33.9588 71.7292 35.2713 70.4167 36.8755 70.4167C38.4796 70.4167 39.7921 71.7292 39.7921 73.3333ZM50.0005 17.9167C55.7463 17.9167 60.5296 22.0972 61.4824 27.5806L59.1782 25.4903C58.6435 25.0042 57.9241 24.7806 57.2144 24.8778C56.5046 24.975 55.8727 25.3833 55.4935 25.9958C54.6477 27.3375 52.8102 29.5931 50.0005 29.5931C47.1907 29.5931 45.3532 27.3375 44.5074 25.9958C44.1185 25.3833 43.4963 24.975 42.7769 24.8778C42.0671 24.7806 41.3477 25.0042 40.813 25.4903L38.5088 27.5806C39.4616 22.0972 44.2449 17.9167 49.9907 17.9167H50.0005ZM38.3338 38.3333V31.6833L42.3588 28.0181C43.6421 29.875 46.1407 32.4903 50.0005 32.4903C53.8602 32.4903 56.3491 29.875 57.6421 28.0181L61.6671 31.6833V38.3333C61.6671 44.7694 56.4366 50 50.0005 50C43.5644 50 38.3338 44.7694 38.3338 38.3333ZM50.0005 63.0181L44.1671 56.7181V51.6917C45.956 52.4792 47.9296 52.9167 50.0005 52.9167C52.0713 52.9167 54.0449 52.4792 55.8338 51.6917V56.7181L50.0005 63.0181Z" fill="black"/>
</g>
<defs>
<clipPath id="clip0_162_484">
<rect width="70" height="70" fill="white" transform="translate(15 15)"/>
</clipPath>
</defs>
</svg>
