<svg width="100" height="100" viewBox="0 0 100 100" fill="none" xmlns="http://www.w3.org/2000/svg">
<path d="M40.5 56.5V34.5H59.5V57L49.5 52L40.5 56.5Z" fill="#FFE780"/>
<mask id="mask0_162_494" style="mask-type:alpha" maskUnits="userSpaceOnUse" x="12" y="12" width="76" height="76">
<rect x="12.5" y="12.5" width="75" height="75" fill="#D9D9D9"/>
</mask>
<g mask="url(#mask0_162_494)">
<path d="M26.9836 35.2648V72.0555C26.9836 72.3357 27.0737 72.5659 27.2539 72.7461C27.4341 72.9263 27.6643 73.0164 27.9445 73.0164H72.0555C72.3357 73.0164 72.5659 72.9263 72.7461 72.7461C72.9263 72.5659 73.0164 72.3357 73.0164 72.0555V35.2648H60.9375V59.6094L50 54.1406L39.0625 59.6094V35.2648H26.9836ZM27.9445 76.5625C26.7159 76.5625 25.6576 76.1185 24.7695 75.2305C23.8815 74.3425 23.4375 73.2841 23.4375 72.0555V33.8219C23.4375 33.3276 23.5156 32.8448 23.6719 32.3734C23.8281 31.9021 24.0625 31.4674 24.375 31.0695L28.8883 25.1922C29.2852 24.6594 29.8013 24.2339 30.4367 23.9156C31.0727 23.5969 31.7464 23.4375 32.4578 23.4375H67.4336C68.1456 23.4375 68.8245 23.5969 69.4703 23.9156C70.1156 24.2339 70.6367 24.6594 71.0336 25.1922L75.625 31.1297C75.9375 31.5276 76.1719 31.9672 76.3281 32.4484C76.4844 32.9297 76.5625 33.4177 76.5625 33.9125V72.0555C76.5625 73.2841 76.1185 74.3425 75.2305 75.2305C74.3425 76.1185 73.2841 76.5625 72.0555 76.5625H27.9445ZM28.2516 31.7188H71.6406L68.0969 27.3141C67.9964 27.2135 67.881 27.1333 67.7508 27.0734C67.6206 27.0135 67.4854 26.9836 67.3453 26.9836H32.5359C32.3958 26.9836 32.2557 27.0135 32.1156 27.0734C31.9755 27.1333 31.8654 27.2135 31.7852 27.3141L28.2516 31.7188ZM42.6086 35.2648V53.8641L50 50.168L57.3914 53.8641V35.2648H42.6086Z" fill="black"/>
</g>
</svg>
