<svg width="100" height="100" viewBox="0 0 100 100" fill="none" xmlns="http://www.w3.org/2000/svg">
<rect x="31" y="27" width="38" height="42" fill="#FFE780"/>
<mask id="mask0_162_474" style="mask-type:alpha" maskUnits="userSpaceOnUse" x="12" y="12" width="76" height="76">
<rect x="12.5" y="12.5" width="75" height="75" fill="#D9D9D9"/>
</mask>
<g mask="url(#mask0_162_474)">
<path d="M27.9445 76.5625C26.7159 76.5625 25.6576 76.1185 24.7695 75.2305C23.8815 74.3425 23.4375 73.2841 23.4375 72.0555V27.9445C23.4375 26.7159 23.8815 25.6576 24.7695 24.7695C25.6576 23.8815 26.7159 23.4375 27.9445 23.4375H43.9602C43.8602 21.7547 44.4031 20.2924 45.5891 19.0508C46.775 17.8086 48.2453 17.1875 50 17.1875C51.775 17.1875 53.2555 17.8086 54.4414 19.0508C55.6268 20.2924 56.1596 21.7547 56.0398 23.4375H72.0555C73.2841 23.4375 74.3425 23.8815 75.2305 24.7695C76.1185 25.6576 76.5625 26.7159 76.5625 27.9445V72.0555C76.5625 73.2841 76.1185 74.3425 75.2305 75.2305C74.3425 76.1185 73.2841 76.5625 72.0555 76.5625H27.9445ZM27.9445 73.0164H72.0555C72.2956 73.0164 72.5159 72.9164 72.7164 72.7164C72.9164 72.5159 73.0164 72.2956 73.0164 72.0555V27.9445C73.0164 27.7044 72.9164 27.4841 72.7164 27.2836C72.5159 27.0836 72.2956 26.9836 72.0555 26.9836H27.9445C27.7044 26.9836 27.4841 27.0836 27.2836 27.2836C27.0836 27.4841 26.9836 27.7044 26.9836 27.9445V72.0555C26.9836 72.2956 27.0836 72.5159 27.2836 72.7164C27.4841 72.9164 27.7044 73.0164 27.9445 73.0164ZM35.1562 64.4828H55.0719V60.9375H35.1562V64.4828ZM35.1562 51.7727H64.8438V48.2273H35.1562V51.7727ZM35.1562 39.0625H64.8438V35.5172H35.1562V39.0625ZM49.9937 25.6852C50.6984 25.6852 51.3164 25.4268 51.8477 24.9102C52.3789 24.393 52.6445 23.775 52.6445 23.0562C52.6445 22.337 52.3789 21.719 51.8477 21.2023C51.3164 20.6852 50.6984 20.4266 49.9937 20.4266C49.2885 20.4266 48.6776 20.6852 48.1609 21.2023C47.6443 21.719 47.3859 22.337 47.3859 23.0562C47.3859 23.775 47.6443 24.393 48.1609 24.9102C48.6776 25.4268 49.2885 25.6852 49.9937 25.6852Z" fill="black"/>
</g>
</svg>
