<svg width="123" height="26" viewBox="0 0 123 26" fill="none" xmlns="http://www.w3.org/2000/svg">
<g clip-path="url(#clip0_162_451)">
<path d="M42.5521 4.56703H43.6366V7.71246H44.9924L46.2398 2.72322V0.717003H42.5521V4.56703ZM26.0664 8.85126C26.8798 8.85126 27.2592 9.50207 27.2592 14.5999H24.6022C24.7106 9.50207 25.1444 8.85126 26.0664 8.85126ZM31.0012 19.1009H29.2658V19.6976C29.2658 22.1922 28.5606 23.3852 27.0964 23.3852C25.4154 23.3852 24.602 22.3004 24.602 16.6061V16.1725H31.2178C31.2178 9.50207 29.7536 6.89905 26.0662 6.89905C22.3786 6.89905 19.9924 10.6951 19.9924 16.5523C19.9924 22.3548 22.27 25.5 26.1746 25.5C29.5368 25.5 31.0011 23.602 31.0011 19.5892V19.1009H31.0012ZM77.0553 8.85126C77.8687 8.85126 78.2483 9.50207 78.2483 14.5999H75.7406C75.849 9.50207 76.1333 8.85126 77.0553 8.85126ZM81.9901 19.1009H80.2547V19.6976C80.2547 22.1922 79.5497 23.3852 78.0855 23.3852C76.4043 23.3852 75.7404 22.3004 75.7404 16.6061V16.1725H82.2069C82.2069 9.50207 80.7427 6.89905 77.0551 6.89905C73.3674 6.89905 70.9814 10.6951 70.9814 16.5521C70.9814 22.3548 73.2592 25.5 77.1637 25.5C80.5259 25.5 81.9901 23.602 81.9901 19.5892V19.1009ZM105.959 25.5C108.4 25.5 109.43 23.9816 109.43 21.8122V19.1009H107.804V21.8122C107.804 22.9514 107.641 23.3306 107.098 23.3306C106.61 23.3306 106.448 23.0052 106.448 21.9748V8.95967H109.43V7.27865H106.502V2.23521H104.821L102.326 7.49545H100.862V8.90547H102.163V20.9444C102.163 24.09 102.706 25.5 105.959 25.5ZM93.3782 11.7255C93.3782 8.36326 91.86 6.95345 88.6062 6.95345C85.3523 6.95345 83.1289 9.28527 83.1289 12.0511V13.1357H86.8709V10.5867C86.8709 9.12247 87.1964 8.58027 88.0098 8.58027C88.8234 8.58027 89.1486 9.06827 89.1486 10.5867V13.5695C84.2137 15.2503 82.6953 16.4979 82.6953 20.6736C82.6953 23.9274 83.9967 25.5 86.2203 25.5C88.1183 25.5 88.9862 24.1984 89.4742 23.3852V25.1746H94.3006V23.7102H93.3786V11.7255H93.3782ZM121.632 23.7102V10.8577C121.632 8.20046 120.439 6.95325 118.324 6.95325C115.775 6.95325 114.745 8.85126 114.745 8.85126V0.5L109.376 1.09661V2.50641H110.623V23.7102H109.756V25.1746H115.721V23.7102H114.853V12.4847C114.853 10.5325 115.396 9.71907 116.372 9.71907C117.077 9.71907 117.348 10.1529 117.348 11.2375V23.7102H116.372V25.1746H122.825V23.7102H121.632ZM89.1484 15.0877V20.6192C89.1484 22.2462 88.8232 22.8972 87.9012 22.8972C87.1964 22.8972 86.8708 22.3004 86.8708 20.3484C86.8708 17.0401 87.142 16.2267 89.1484 15.0877ZM70.155 23.7102V2.18121H71.4024V0.771H63.9727V2.18101H65.4911V12.2677H60.7191V2.18121H62.2917V0.771H54.7536V2.18101H56.0553V23.71H54.7536V25.1744H62.2917V23.71H60.7191V13.9491H65.4911V23.7102H63.9727V25.1746H71.4024V23.7102H70.155ZM99.9943 23.7102V0.5L94.4086 1.09661V2.50641H95.7644V23.7102H94.8968V25.1746H101.296V23.7102H99.9943ZM54.4826 20.3482C54.4826 14.5999 48.3006 14.2201 48.3006 10.4239C48.3006 9.12247 48.9512 8.47166 49.9816 8.47166C51.5542 8.47166 52.3678 10.0443 52.4762 13.3521H53.886V7.92926C53.886 7.92926 52.3134 6.95325 49.9272 6.95325C47.0532 6.95325 44.7212 8.58006 44.7212 11.8881C44.7212 17.3111 50.7406 18.0705 50.7406 21.758C50.7406 23.2224 50.0356 23.9274 48.8966 23.9274C47.1612 23.9274 46.2936 22.409 46.1852 18.6669H44.7754V24.524C44.7754 24.524 46.5108 25.5 49.0594 25.5C52.205 25.5 54.4826 23.7102 54.4826 20.3482ZM19.1792 23.7102V2.18121H20.318V0.771H13.9731L10.8279 14.4913L7.46566 0.771H0.958008V2.18101H2.31382V23.71H0.958008V25.1744H5.94704V23.71H4.37443V8.58006L8.33327 25.1744H10.6109L14.5153 8.47166V23.71H13.0511V25.1744H20.318V23.71H19.1792V23.7102ZM43.2028 23.7102V10.8577C43.2028 8.20046 42.0099 6.95325 39.9491 6.95325C37.4003 6.95325 36.3699 8.85126 36.3699 8.85126V6.95325L30.9469 7.54986V9.01407H32.1943V23.7102H30.8929V25.1746H37.3459V23.7102H36.4783V12.4847C36.4783 10.5325 37.0207 9.71907 37.9967 9.71907C38.7017 9.71907 38.9727 10.1529 38.9727 11.2375V23.7102H37.9967V25.1746H44.0704V23.7102H43.2028Z" fill="#BFBFBF"/>
</g>
<defs>
<clipPath id="clip0_162_451">
<rect width="121.867" height="25" fill="white" transform="translate(0.958008 0.5)"/>
</clipPath>
</defs>
</svg>
