<svg width="24" height="24" viewBox="0 0 24 24" fill="none" xmlns="http://www.w3.org/2000/svg">
<path d="M22 18.33C22 18.69 21.9199 19.06 21.7496 19.42C21.5794 19.78 21.359 20.12 21.0686 20.44C20.5779 20.98 20.0371 21.37 19.4261 21.62C18.8252 21.87 18.1743 22 17.4732 22C16.4517 22 15.36 21.76 14.2083 21.27C13.0566 20.78 11.9049 20.12 10.7631 19.29C9.59951 18.4401 8.50144 17.5041 7.47822 16.49C6.46547 15.472 5.5314 14.3789 4.68403 13.22C3.86279 12.08 3.2018 10.94 2.72108 9.81C2.24036 8.67 2 7.58 2 6.54C2 5.86 2.12018 5.21 2.36054 4.61C2.6009 4 2.98147 3.44 3.51227 2.94C4.15323 2.31 4.85428 2 5.59539 2C5.87581 2 6.15623 2.06 6.40661 2.18C6.667 2.3 6.89735 2.48 7.07762 2.74L9.4011 6.01C9.58137 6.26 9.71157 6.49 9.8017 6.71C9.89184 6.92 9.94191 7.13 9.94191 7.32C9.94191 7.56 9.87181 7.8 9.7316 8.03C9.6014 8.26 9.41112 8.5 9.17076 8.74L8.40961 9.53C8.29945 9.64 8.24937 9.77 8.24937 9.93C8.24937 10.01 8.25939 10.08 8.27942 10.16C8.30946 10.24 8.33951 10.3 8.35954 10.36C8.53981 10.69 8.85028 11.12 9.29094 11.64C9.74161 12.16 10.2223 12.69 10.7431 13.22C11.2839 13.75 11.8047 14.24 12.3355 14.69C12.8563 15.13 13.2869 15.43 13.6274 15.61C13.6775 15.63 13.7376 15.66 13.8077 15.69C13.8878 15.72 13.968 15.73 14.0581 15.73C14.2283 15.73 14.3585 15.67 14.4687 15.56L15.2298 14.81C15.4802 14.56 15.7206 14.37 15.9509 14.25C16.1813 14.11 16.4116 14.04 16.662 14.04C16.8523 14.04 17.0526 14.08 17.2729 14.17C17.4932 14.26 17.7236 14.39 17.974 14.56L21.2889 16.91C21.5493 17.09 21.7296 17.3 21.8398 17.55C21.9399 17.8 22 18.05 22 18.33Z" stroke="#7F7F7F" stroke-width="1.5" stroke-miterlimit="10"/>
</svg>
