<svg width="180" height="32" viewBox="0 0 180 32" fill="none" xmlns="http://www.w3.org/2000/svg">
<mask id="mask0_1148_14166" style="mask-type:alpha" maskUnits="userSpaceOnUse" x="39" y="4" width="25" height="24">
<rect x="39.5" y="4" width="24" height="24" fill="#D9D9D9"/>
</mask>
<g mask="url(#mask0_1148_14166)">
<path d="M45.325 25L46.95 17.975L41.5 13.25L48.7 12.625L51.5 6L54.3 12.625L61.5 13.25L56.05 17.975L57.675 25L51.5 21.275L45.325 25Z" fill="#FEC000"/>
</g>
<mask id="mask1_1148_14166" style="mask-type:alpha" maskUnits="userSpaceOnUse" x="68" y="4" width="25" height="24">
<rect x="68.5" y="4" width="24" height="24" fill="#D9D9D9"/>
</mask>
<g mask="url(#mask1_1148_14166)">
<path d="M74.325 25L75.95 17.975L70.5 13.25L77.7 12.625L80.5 6L83.3 12.625L90.5 13.25L85.05 17.975L86.675 25L80.5 21.275L74.325 25Z" fill="#FEC000"/>
</g>
<mask id="mask2_1148_14166" style="mask-type:alpha" maskUnits="userSpaceOnUse" x="97" y="4" width="25" height="24">
<rect x="97.5" y="4" width="24" height="24" fill="#D9D9D9"/>
</mask>
<g mask="url(#mask2_1148_14166)">
<path d="M103.325 25L104.95 17.975L99.5 13.25L106.7 12.625L109.5 6L112.3 12.625L119.5 13.25L114.05 17.975L115.675 25L109.5 21.275L103.325 25Z" fill="#FEC000"/>
</g>
<mask id="mask3_1148_14166" style="mask-type:alpha" maskUnits="userSpaceOnUse" x="126" y="4" width="25" height="24">
<rect x="126.5" y="4" width="24" height="24" fill="#D9D9D9"/>
</mask>
<g mask="url(#mask3_1148_14166)">
<path d="M132.325 25L133.95 17.975L128.5 13.25L135.7 12.625L138.5 6L141.3 12.625L148.5 13.25L143.05 17.975L144.675 25L138.5 21.275L132.325 25Z" fill="#FEC000"/>
</g>
<mask id="mask4_1148_14166" style="mask-type:alpha" maskUnits="userSpaceOnUse" x="155" y="4" width="25" height="24">
<rect x="155.5" y="4" width="24" height="24" fill="#D9D9D9"/>
</mask>
<g mask="url(#mask4_1148_14166)">
<path d="M170.65 20.85L169.825 17.25L172.6 14.85L168.95 14.525L167.5 11.125V18.925L170.65 20.85ZM161.325 25L162.95 17.975L157.5 13.25L164.7 12.625L167.5 6L170.3 12.625L177.5 13.25L172.05 17.975L173.675 25L167.5 21.275L161.325 25Z" fill="#FEC000"/>
</g>
<path d="M30.08 16.3333C30.08 15.2933 29.9867 14.2933 29.8133 13.3333H16V19.0133H23.8933C23.5467 20.84 22.5067 22.3867 20.9467 23.4267V27.12H25.7067C28.48 24.56 30.08 20.8 30.08 16.3333Z" fill="#4285F4"/>
<path d="M15.9996 30.667C19.9596 30.667 23.2796 29.3604 25.7063 27.1204L20.9463 23.427C19.6396 24.307 17.9729 24.8404 15.9996 24.8404C12.1862 24.8404 8.94625 22.267 7.78625 18.8004H2.90625V22.587C5.31958 27.3737 10.2662 30.667 15.9996 30.667Z" fill="#34A853"/>
<path d="M7.78536 18.7871C7.49203 17.9071 7.3187 16.9738 7.3187 16.0004C7.3187 15.0271 7.49203 14.0938 7.78536 13.2138V9.42709H2.90536C1.90536 11.4004 1.33203 13.6271 1.33203 16.0004C1.33203 18.3738 1.90536 20.6004 2.90536 22.5738L6.70536 19.6138L7.78536 18.7871Z" fill="#FBBC05"/>
<path d="M15.9996 7.17334C18.1596 7.17334 20.0796 7.92001 21.6129 9.36001L25.8129 5.16001C23.2663 2.78668 19.9596 1.33334 15.9996 1.33334C10.2662 1.33334 5.31958 4.62668 2.90625 9.42668L7.78625 13.2133C8.94625 9.74668 12.1862 7.17334 15.9996 7.17334Z" fill="#EA4335"/>
</svg>
