<svg width="32" height="27" viewBox="0 0 32 27" fill="none" xmlns="http://www.w3.org/2000/svg">
<path d="M10.052 27.0002C22.128 27.0002 28.734 16.9942 28.734 8.33217C28.734 8.05217 28.734 7.76817 28.722 7.48817C30.0081 6.55714 31.1181 5.40447 32 4.08417C30.7986 4.61387 29.5255 4.96298 28.222 5.12017C29.5951 4.29944 30.6234 3.0081 31.116 1.48617C29.826 2.25041 28.414 2.78691 26.942 3.07217C25.9524 2.01821 24.6428 1.32 23.2162 1.08568C21.7895 0.85136 20.3254 1.09401 19.0507 1.77604C17.7759 2.45807 16.7616 3.54142 16.1649 4.85829C15.5682 6.17515 15.4224 7.65203 15.75 9.06017C13.1395 8.92927 10.5856 8.2511 8.25409 7.06965C5.92254 5.8882 3.86537 4.22985 2.216 2.20217C1.37868 3.64833 1.12315 5.35897 1.50129 6.9867C1.87944 8.61443 2.86291 10.0372 4.252 10.9662C3.21108 10.9308 2.19304 10.6513 1.28 10.1502V10.2402C1.28179 11.7551 1.80661 13.223 2.76575 14.3957C3.72488 15.5684 5.0595 16.3739 6.544 16.6762C5.98053 16.8314 5.39846 16.9088 4.814 16.9062C4.40197 16.9074 3.99076 16.8692 3.586 16.7922C4.00557 18.0963 4.82255 19.2365 5.92249 20.0531C7.02244 20.8697 8.35027 21.3219 9.72 21.3462C7.39311 23.1738 4.5188 24.165 1.56 24.1602C1.03864 24.1624 0.517646 24.1323 0 24.0702C3.00303 25.9847 6.4906 27.0013 10.052 27.0002Z" fill="white"/>
</svg>
