<svg width="101" height="101" viewBox="0 0 101 101" fill="none" xmlns="http://www.w3.org/2000/svg">
<path d="M58.8108 77.202C57.6471 77.2039 56.5124 76.839 55.568 76.159C54.6236 75.4791 53.9176 74.5187 53.5503 73.4145L53.5872 73.3882L55.1232 72.0784C55.7586 71.5366 56.2131 70.8135 56.4256 70.006C56.6382 69.1985 56.5987 68.3454 56.3124 67.561C56.0262 66.7766 55.5068 66.0986 54.8241 65.6178C54.1414 65.1371 53.328 64.8767 52.493 64.8716H49.4157C48.5807 64.8767 47.7673 65.1371 47.0846 65.6178C46.4018 66.0986 45.8825 66.7766 45.5962 67.561C45.31 68.3454 45.2705 69.1985 45.483 70.006C45.6956 70.8135 46.1501 71.5366 46.7855 72.0784L47.8691 73.0305C47.5345 74.3348 46.7358 75.4724 45.6226 76.2301C44.5094 76.9878 43.1582 77.3136 41.822 77.1465C40.4858 76.9794 39.2564 76.3309 38.3641 75.3224C37.4718 74.3139 36.9779 73.0146 36.9748 71.668H31.7144C31.7129 73.8676 32.3841 76.015 33.6379 77.8222C34.8917 79.6295 36.6681 81.0101 38.729 81.7789C40.7898 82.5477 43.0365 82.6679 45.1676 82.1235C47.2987 81.579 49.2123 80.3959 50.6519 78.7328C52.0914 80.3959 54.005 81.579 56.1362 82.1235C58.2673 82.6679 60.5139 82.5477 62.5747 81.7789C64.6356 81.0101 66.412 79.6295 67.6658 77.8222C68.9196 76.015 69.5908 73.8676 69.5894 71.668H64.3289C64.3276 73.1326 63.7462 74.537 62.7121 75.574C61.678 76.6111 60.2753 77.1964 58.8108 77.202Z" fill="black"/>
<path d="M69.6 25.8919C63.6484 23.6506 57.348 22.4771 50.9886 22.4253C44.5355 22.2891 38.1218 23.463 32.1353 25.8762L11.1567 11.9255V57.0652C11.1567 67.5539 15.3234 77.6131 22.74 85.0297C30.1567 92.4464 40.2158 96.613 50.7046 96.613C61.1933 96.613 71.2524 92.4464 78.6691 85.0297C86.0857 77.6131 90.2524 67.5539 90.2524 57.0652V11.8677L69.6 25.8919ZM84.992 57.0652C84.992 66.1588 81.3795 74.8799 74.9494 81.31C68.5193 87.7402 59.7981 91.3526 50.7046 91.3526C41.611 91.3526 32.8898 87.7402 26.4597 81.31C20.0296 74.8799 16.4172 66.1588 16.4172 57.0652V21.7415L31.7302 31.9204L33.1032 31.205C33.1768 31.1681 40.31 27.5227 50.915 27.6858C61.52 27.8488 68.6794 31.2102 68.7478 31.2418L70.1102 31.8993L84.992 21.7993V57.0652Z" fill="black"/>
<path d="M32.8769 62.3153C35.5962 62.3153 37.8006 60.1108 37.8006 57.3915C37.8006 54.6722 35.5962 52.4678 32.8769 52.4678C30.1576 52.4678 27.9531 54.6722 27.9531 57.3915C27.9531 60.1108 30.1576 62.3153 32.8769 62.3153Z" fill="black"/>
<path d="M68.5321 62.3153C71.2515 62.3153 73.4559 60.1108 73.4559 57.3915C73.4559 54.6722 71.2515 52.4678 68.5321 52.4678C65.8128 52.4678 63.6084 54.6722 63.6084 57.3915C63.6084 60.1108 65.8128 62.3153 68.5321 62.3153Z" fill="black"/>
</svg>
