<svg width="21" height="19" viewBox="0 0 21 19" fill="none" xmlns="http://www.w3.org/2000/svg">
<path d="M18.0161 17.4166C18.0161 14.3528 14.6474 11.8749 10.4999 11.8749C6.35239 11.8749 2.98364 14.3528 2.98364 17.4166M10.4999 9.49992C11.6602 9.49992 12.773 9.08288 13.5935 8.34055C14.414 7.59822 14.8749 6.5914 14.8749 5.54159C14.8749 4.49177 14.414 3.48495 13.5935 2.74262C12.773 2.00029 11.6602 1.58325 10.4999 1.58325C9.33957 1.58325 8.22677 2.00029 7.4063 2.74262C6.58583 3.48495 6.12489 4.49177 6.12489 5.54159C6.12489 6.5914 6.58583 7.59822 7.4063 8.34055C8.22677 9.08288 9.33957 9.49992 10.4999 9.49992Z" stroke="black" stroke-width="1.5" stroke-linecap="round" stroke-linejoin="round"/>
</svg>
