<svg width="22" height="21" viewBox="0 0 22 21" fill="none" xmlns="http://www.w3.org/2000/svg">
<path d="M20.97 16.5135C20.97 16.8555 20.89 17.207 20.72 17.549C20.55 17.891 20.33 18.214 20.04 18.518C19.55 19.031 19.01 19.4015 18.4 19.639C17.8 19.8765 17.15 20 16.45 20C15.43 20 14.34 19.772 13.19 19.3065C12.04 18.841 10.89 18.214 9.75 17.4255C8.58811 16.6181 7.49169 15.7289 6.47 14.7655C5.45877 13.7984 4.5261 12.7599 3.68 11.659C2.86 10.576 2.2 9.493 1.72 8.4195C1.24 7.3365 1 6.301 1 5.313C1 4.667 1.12 4.0495 1.36 3.4795C1.6 2.9 1.98 2.368 2.51 1.893C3.15 1.2945 3.85 1 4.59 1C4.87 1 5.15 1.057 5.4 1.171C5.66 1.285 5.89 1.456 6.07 1.703L8.39 4.8095C8.57 5.047 8.7 5.2655 8.79 5.4745C8.88 5.674 8.93 5.8735 8.93 6.054C8.93 6.282 8.86 6.51 8.72 6.7285C8.59 6.947 8.4 7.175 8.16 7.403L7.4 8.1535C7.29 8.258 7.24 8.3815 7.24 8.5335C7.24 8.6095 7.25 8.676 7.27 8.752C7.3 8.828 7.33 8.885 7.35 8.942C7.53 9.2555 7.84 9.664 8.28 10.158C8.73 10.652 9.21 11.1555 9.73 11.659C10.27 12.1625 10.79 12.628 11.32 13.0555C11.84 13.4735 12.27 13.7585 12.61 13.9295C12.66 13.9485 12.72 13.977 12.79 14.0055C12.87 14.034 12.95 14.0435 13.04 14.0435C13.21 14.0435 13.34 13.9865 13.45 13.882L14.21 13.1695C14.46 12.932 14.7 12.7515 14.93 12.6375C15.16 12.5045 15.39 12.438 15.64 12.438C15.83 12.438 16.03 12.476 16.25 12.5615C16.47 12.647 16.7 12.7705 16.95 12.932L20.26 15.1645C20.52 15.3355 20.7 15.535 20.81 15.7725C20.91 16.01 20.97 16.2475 20.97 16.5135Z" stroke="black" stroke-width="1.5" stroke-miterlimit="10"/>
</svg>
