<svg width="42" height="42" viewBox="0 0 42 42" fill="none" xmlns="http://www.w3.org/2000/svg">
<path d="M33.0891 30.8915C32.5807 30.0683 32.0176 29.2801 31.4036 28.5322L30.5707 27.5488L29.7377 28.5322C29.1244 29.2791 28.5613 30.0658 28.0522 30.8872C26.8878 32.7668 26.2969 34.4043 26.2969 35.7519C26.2955 36.3131 26.4046 36.8691 26.618 37.3882C26.8315 37.9072 27.1451 38.3792 27.5409 38.7771C27.9368 39.1749 28.4071 39.4909 28.9251 39.707C29.4431 39.9231 29.9985 40.0351 30.5598 40.0365C31.121 40.038 31.677 39.9288 32.1961 39.7154C32.7152 39.5019 33.1871 39.1883 33.585 38.7925C33.9828 38.3966 34.2988 37.9263 34.5149 37.4083C34.731 36.8904 34.843 36.3349 34.8444 35.7737C34.8444 34.4174 34.2535 32.7733 33.0891 30.8915ZM30.5707 37.9411C30.0046 37.9273 29.467 37.6904 29.0749 37.282C28.6828 36.8736 28.468 36.3267 28.4774 35.7606C28.4774 34.3345 29.6374 32.359 30.5707 31.0398C31.5017 32.3612 32.6639 34.3433 32.6639 35.7824C32.6704 36.3456 32.454 36.8885 32.0619 37.2928C31.6698 37.6972 31.1338 37.9302 30.5707 37.9411Z" fill="black"/>
<path d="M30.2253 16.9429L15.6421 2.50586L7.64844 10.5737L22.236 25.0195L31.5837 26.2798L30.2253 16.9429ZM23.2477 22.9545L19.8985 19.638L23.457 16.0424L21.9089 14.516L18.3481 18.0986L16.3486 16.1361L19.6041 12.8458L18.0538 11.3194L14.8026 14.5967L10.7317 10.565L15.6574 5.58908L28.1734 17.9787L29.0064 23.7308L23.2477 22.9545Z" fill="black"/>
</svg>
