<svg width="42" height="42" viewBox="0 0 42 42" fill="none" xmlns="http://www.w3.org/2000/svg">
<path fill-rule="evenodd" clip-rule="evenodd" d="M37.3712 5.44922H4.36719V29.3889H19.7789V34.2045H21.9594V29.3889H37.3712V5.44922ZM6.54768 27.2084V7.62971H35.1907V27.2084H28.3897V25.7436C28.3897 23.7577 27.6008 21.8532 26.1966 20.4489C25.5992 19.8515 24.9112 19.3655 24.165 19.0042C25.2744 18.0748 25.9803 16.6809 25.9803 15.1208C25.9803 12.3175 23.7013 10.0512 20.8975 10.0512C18.0938 10.0512 15.8148 12.3175 15.8148 15.1208C15.8148 16.6824 16.522 18.0775 17.6333 19.0069C16.8892 19.3679 16.2031 19.853 15.6072 20.4489C14.203 21.8532 13.4141 23.7577 13.4141 25.7436V27.2084H6.54768ZM15.5946 27.2084H26.2092V25.7436C26.2092 24.336 25.65 22.9861 24.6547 21.9908C23.6594 20.9955 22.3095 20.4363 20.9019 20.4363C19.4943 20.4363 18.1444 20.9955 17.149 21.9908C16.1537 22.9861 15.5946 24.336 15.5946 25.7436V27.2084ZM20.8975 12.2316C19.2913 12.2316 17.9953 13.5285 17.9953 15.1208C17.9953 16.7131 19.2913 18.01 20.8975 18.01C22.5038 18.01 23.7998 16.7131 23.7998 15.1208C23.7998 13.5285 22.5038 12.2316 20.8975 12.2316ZM13.7542 36.4123H28.3635V34.2318H13.7542V36.4123Z" fill="black"/>
</svg>
