<svg width="52" height="38" viewBox="0 0 52 38" fill="none" xmlns="http://www.w3.org/2000/svg">
<path d="M45 12.252C44.882 12.8928 44.8166 13.5485 44.6381 14.1715C43.2072 19.1651 39.9549 22.2859 34.8979 23.4515C32.536 23.9961 30.8483 25.6091 30.3823 27.9968C29.4086 32.9874 25.3372 36.9603 20.3169 37.8065C17.01 38.364 13.9629 37.7361 11.2867 35.6737C8.7651 33.7304 7.39277 31.1245 7.06456 27.966C6.40418 21.6024 10.9049 16.2556 16.2088 14.8153C16.6967 14.6824 17.2043 14.6129 17.6833 14.4562C19.8231 13.7568 21.1706 12.3294 21.6109 10.0944C22.6114 5.02241 26.7313 1.02274 31.8449 0.167645C32.2455 0.101182 32.649 0.0555511 33.0506 0C33.4958 0 33.941 0 34.3862 0C34.7273 0.0466232 35.0684 0.0952304 35.4095 0.140862C39.8617 0.73506 43.5642 4.04333 44.6351 8.40309C44.7898 9.034 44.88 9.68176 44.999 10.3206V12.251L45 12.252ZM37.3481 2.25776C37.2925 2.23395 37.1874 2.18435 37.0784 2.14467C36.0828 1.77863 35.0496 1.59908 33.9936 1.57527C28.7016 1.45425 24.0333 5.25156 23.0338 10.4833C22.4646 13.4652 20.3536 15.6505 17.358 16.1683C12.2168 17.0572 7.58811 22.272 8.56282 28.4412C8.67884 29.1752 8.91384 29.8905 9.09331 30.6146C9.13198 30.6077 9.17165 30.6007 9.21032 30.5948C9.41557 29.3905 9.82509 28.2576 10.3843 27.1784C10.5936 26.7736 10.9644 26.6576 11.3462 26.855C11.7358 27.0573 11.8598 27.4164 11.6764 27.8212C11.5435 28.1138 11.3987 28.4015 11.2758 28.6981C10.8276 29.7803 10.4974 30.8874 10.5589 32.0788C10.6223 33.3059 11.3124 34.1163 12.5202 34.3326C13.4453 34.4982 14.3526 34.3494 15.2163 34.025C19.8568 32.2821 23.2281 29.0899 25.595 24.7936C26.1215 23.8374 26.6282 22.8801 27.3421 22.0488C28.4081 20.8069 29.6307 19.7593 31.1042 19.0243C31.4056 18.8745 31.7011 18.8546 31.9787 19.054C32.2405 19.2415 32.3317 19.5401 32.2187 19.8119C32.1284 20.0282 31.9282 20.2385 31.7219 20.3575C30.7244 20.9388 29.7725 21.5727 28.9673 22.4129C28.0769 23.3424 27.4334 24.4266 26.8176 25.5515C24.6381 29.5304 21.5435 32.6025 17.4879 34.6579C16.536 35.14 15.5058 35.4664 14.5331 35.8562C14.5559 35.8662 14.6213 35.8999 14.6907 35.9237C16.3199 36.4961 17.9827 36.6429 19.6952 36.3989C24.065 35.7769 27.834 32.2563 28.6738 27.9362C29.3154 24.6399 31.239 22.6192 34.534 21.9447C37.6247 21.3118 39.9956 19.6274 41.6713 16.9927C43.4135 14.2528 43.7982 11.2927 42.8493 8.17494C42.8136 8.05888 42.7591 7.94877 42.6758 7.74541C42.2543 9.75616 41.4393 11.4753 40.3059 13.0208C39.475 14.1536 38.526 15.2021 37.5979 16.2616C37.2023 16.7129 36.6133 16.6266 36.3615 16.1376C36.175 15.7745 36.3079 15.4849 36.5608 15.1992C37.2489 14.4215 37.9628 13.6626 38.5895 12.8363C39.8101 11.2283 40.7829 9.48535 41.1716 7.47162C41.3272 6.66613 41.36 5.86262 40.9544 5.02341C40.8334 5.11764 40.7749 5.26446 40.6718 5.36663C35.3828 10.6638 30.0908 15.9571 24.7978 21.2503C24.3764 21.6719 23.9728 21.7086 23.6347 21.3693C23.2926 21.0261 23.3283 20.6204 23.7368 20.2027C23.7884 20.1502 23.8419 20.0976 23.8945 20.045C29.1339 14.8034 34.3724 9.56173 39.6158 4.32406C39.7179 4.22287 39.8716 4.17328 40.0015 4.09987C39.9648 4.0463 39.9291 3.99373 39.8924 3.94016C39.6435 3.88758 39.3966 3.81418 39.1458 3.7864C37.9658 3.65348 36.8533 3.9481 35.7973 4.42425C31.5315 6.3477 28.2941 9.39111 26.1572 13.5485C24.8791 16.0364 23.0467 17.9053 20.5886 19.2167C19.5782 19.7554 18.6084 20.3823 17.6753 21.0479C16.9128 21.5915 16.2346 22.2532 15.5177 22.8593C15.1369 23.1817 14.6501 23.1737 14.3516 22.8454C14.0432 22.5061 14.0799 22.1133 14.4627 21.7354C16.0571 20.1621 17.8122 18.8031 19.831 17.815C22.0125 16.7467 23.5633 15.0712 24.7224 12.9613C25.3511 11.8165 26.0283 10.6827 26.8216 9.64902C28.8414 7.0163 31.2826 4.84584 34.3 3.40647C35.2797 2.93925 36.3367 2.63372 37.3441 2.25974L37.3481 2.25776Z" fill="black"/>
<path d="M16.6246 29C16.4049 28.8213 16.1354 28.6987 16.0407 28.4981C15.9509 28.3079 16.0339 28.0342 16.0612 27.7994C16.068 27.7404 16.1452 27.6862 16.1959 27.6359C17.6929 26.1767 19.1879 24.7146 20.6916 23.2621C21.1506 22.8181 21.7872 22.9598 21.9669 23.5244C22.0733 23.8571 21.9083 24.0957 21.6837 24.3144C20.6418 25.3287 19.5999 26.343 18.558 27.3573C18.1186 27.7851 17.688 28.2205 17.2349 28.634C17.0845 28.7709 16.8785 28.8498 16.6236 28.999L16.6246 29Z" fill="black"/>
</svg>
